<?xml version="1.0" encoding="UTF-8" standalone="no"?>
<!DOCTYPE svg PUBLIC "-//W3C//DTD SVG 1.1//EN" "http://www.w3.org/Graphics/SVG/1.1/DTD/svg11.dtd">
<svg width="100%" height="100%" viewBox="0 0 2272 1872" version="1.1" xmlns="http://www.w3.org/2000/svg" xmlns:xlink="http://www.w3.org/1999/xlink" xml:space="preserve" xmlns:serif="http://www.serif.com/" style="fill-rule:evenodd;clip-rule:evenodd;stroke-linejoin:round;stroke-miterlimit:2;">
    <path d="M796.4,417C775.6,413.6 755.6,408.7 734.4,408.1C711.2,407.4 685.3,411.6 662.4,406.4C649,403.4 639.7,394.3 629.5,385.6C620,377.5 611,371.8 598.2,372.1C585.8,372.3 574.1,377.3 562,379.7C541.8,383.7 531.3,375.9 520.3,359.9C514,350.8 508.3,336.4 497.7,331.6C475.6,321.6 455.2,350.9 433.9,350.3C414.6,349.8 409.9,319.1 404.5,305.7C400,294.5 394.6,284.4 382.2,281.9C371.8,279.8 360.4,282.7 350.1,284.2C329,287.2 307,287.5 288.9,300.1C279.2,306.9 267.4,327.4 253.9,323.6C246.4,321.5 241.3,313.4 236.7,307.8C230,299.6 223.8,291.5 218.6,282.2C213.1,272.4 207.3,255.4 197.7,248.9C191.7,244.8 182.5,245.3 175.6,245.8C163.3,246.7 149.7,252.4 137.2,248.8C127.8,246 122,235.6 116.7,228.2C109.6,218.3 101.6,209.1 94.1,199.5C79.6,181 66.7,167.3 41.7,171.1C26.4,173.5 16.5,185.4 0,182.9L0,478.9C28.4,482.3 56.8,485.1 87,481C101.5,479.3 116,479.5 130.5,479.7C142,479.8 153.5,479.9 165,479C185,478 205,477 225,479C248.6,480.3 272,481 295.4,481.1C381,481.7 465.6,475.4 552,466C587,463 622,463 657,466C666,467 675,468 684,468C687,468 690,471 693,471C745,474 794,467 846,455C881.4,447 914.4,442.2 949.2,436.4C946.7,436.2 944.2,436 941.7,435.9C915.6,434.2 889.8,431.7 864,427.6C841.4,423.9 818.9,420.7 796.4,417Z" style="fill:rgb(222,176,192);fill-rule:nonzero;"/>
    <g>
        <path d="M502.7,471C497.9,471.5 493.2,471.9 488.4,472.3C493.1,471.9 497.9,471.5 502.7,471Z" style="fill:rgb(143,114,154);fill-rule:nonzero;"/>
        <path d="M486,472.5C481.4,472.9 476.9,473.3 472.3,473.7C476.9,473.3 481.5,472.9 486,472.5Z" style="fill:rgb(143,114,154);fill-rule:nonzero;"/>
        <path d="M518.4,469.5C514,469.9 509.6,470.4 505.2,470.8C509.6,470.3 514,469.9 518.4,469.5Z" style="fill:rgb(143,114,154);fill-rule:nonzero;"/>
        <path d="M552,466C547.2,466.5 542.4,467 537.6,467.5C542.4,467 547.2,466.5 552,466Z" style="fill:rgb(143,114,154);fill-rule:nonzero;"/>
        <path d="M534.4,467.9C529.6,468.4 524.9,468.9 520.2,469.4C524.9,468.8 529.7,468.3 534.4,467.9Z" style="fill:rgb(143,114,154);fill-rule:nonzero;"/>
        <path d="M374.7,479.8C369.7,480 364.6,480.2 359.6,480.3C364.6,480.2 369.6,480 374.7,479.8Z" style="fill:rgb(143,114,154);fill-rule:nonzero;"/>
        <path d="M471.1,473.8C466.2,474.2 461.4,474.6 456.5,475C461.4,474.6 466.3,474.2 471.1,473.8Z" style="fill:rgb(143,114,154);fill-rule:nonzero;"/>
        <path d="M359.5,480.3C354.4,480.5 349.4,480.6 344.3,480.7C349.3,480.6 354.4,480.5 359.5,480.3Z" style="fill:rgb(143,114,154);fill-rule:nonzero;"/>
        <path d="M390.9,479.1C385.9,479.3 380.9,479.6 375.9,479.8C380.9,479.6 385.9,479.3 390.9,479.1Z" style="fill:rgb(143,114,154);fill-rule:nonzero;"/>
        <path d="M1883.5,436.9C1887.6,437 1891.6,437 1895.7,437C1891.7,437 1887.6,436.9 1883.5,436.9Z" style="fill:rgb(143,114,154);fill-rule:nonzero;"/>
        <path d="M407.1,478.3C402.2,478.6 397.2,478.8 392.3,479.1C397.3,478.8 402.2,478.6 407.1,478.3Z" style="fill:rgb(143,114,154);fill-rule:nonzero;"/>
        <path d="M312.4,481.1C322.5,481.1 332.6,480.9 342.7,480.7C332.5,481 322.5,481.1 312.4,481.1Z" style="fill:rgb(143,114,154);fill-rule:nonzero;"/>
        <path d="M422.5,477.4C417.5,477.7 412.5,478 407.6,478.3C412.5,478 417.5,477.7 422.5,477.4Z" style="fill:rgb(143,114,154);fill-rule:nonzero;"/>
        <path d="M424.6,477.2C434.5,476.6 444.3,475.9 454.2,475.1C444.3,475.9 434.4,476.6 424.6,477.2Z" style="fill:rgb(143,114,154);fill-rule:nonzero;"/>
        <path d="M2081.9,429C2078,429.4 2074.1,429.8 2070.2,430.1C2074.1,429.7 2078,429.4 2081.9,429Z" style="fill:rgb(143,114,154);fill-rule:nonzero;"/>
        <path d="M2119.2,424.8C2115.7,425.2 2112.2,425.7 2108.7,426.1C2112.2,425.7 2115.7,425.3 2119.2,424.8Z" style="fill:rgb(143,114,154);fill-rule:nonzero;"/>
        <path d="M2044.4,432.2L2043.9,432.2L2044.4,432.2Z" style="fill:rgb(143,114,154);fill-rule:nonzero;"/>
        <path d="M2031.8,433.1C2035.8,432.8 2039.8,432.5 2043.8,432.2L2043.7,432.2C2039.8,432.6 2035.8,432.8 2031.8,433.1Z" style="fill:rgb(143,114,154);fill-rule:nonzero;"/>
        <path d="M2056.9,431.2C2052.8,431.5 2048.7,431.9 2044.6,432.2C2048.7,431.9 2052.8,431.6 2056.9,431.2Z" style="fill:rgb(143,114,154);fill-rule:nonzero;"/>
        <path d="M2106.8,426.3C2103.2,426.7 2099.5,427.1 2095.9,427.5C2099.5,427.1 2103.1,426.7 2106.8,426.3Z" style="fill:rgb(143,114,154);fill-rule:nonzero;"/>
        <path d="M2094.3,427.7C2090.5,428.1 2086.7,428.5 2083,428.9C2086.8,428.5 2090.5,428.1 2094.3,427.7Z" style="fill:rgb(143,114,154);fill-rule:nonzero;"/>
        <path d="M2144.2,421.6C2141,422.1 2137.7,422.5 2134.5,422.9C2137.7,422.5 2140.9,422 2144.2,421.6Z" style="fill:rgb(143,114,154);fill-rule:nonzero;"/>
        <path d="M2131.7,423.3C2128.3,423.7 2125,424.2 2121.6,424.6C2124.9,424.1 2128.3,423.7 2131.7,423.3Z" style="fill:rgb(143,114,154);fill-rule:nonzero;"/>
        <path d="M2156.6,419.8C2153.5,420.3 2150.4,420.7 2147.2,421.2C2150.4,420.7 2153.5,420.2 2156.6,419.8Z" style="fill:rgb(143,114,154);fill-rule:nonzero;"/>
        <path d="M2182.5,415.8C2179.4,416.3 2176.3,416.8 2173.1,417.3C2176.2,416.8 2179.4,416.3 2182.5,415.8Z" style="fill:rgb(143,114,154);fill-rule:nonzero;"/>
        <path d="M2169.4,417.9C2166.3,418.4 2163.3,418.9 2160.2,419.3C2163.3,418.8 2166.3,418.3 2169.4,417.9Z" style="fill:rgb(143,114,154);fill-rule:nonzero;"/>
        <path d="M2199,413C2194.7,413.8 2190.4,414.5 2186.1,415.2C2190.4,414.5 2194.7,413.7 2199,413Z" style="fill:rgb(143,114,154);fill-rule:nonzero;"/>
        <path d="M1966.2,436.3C1964.4,436.4 1962.7,436.4 1960.9,436.4C1962.7,436.4 1964.4,436.3 1966.2,436.3Z" style="fill:rgb(143,114,154);fill-rule:nonzero;"/>
        <path d="M1993.7,435.3C1994.4,435.3 1995.2,435.2 1995.9,435.2C1991,435.4 1986.1,435.6 1981.3,435.8C1985.4,435.6 1989.6,435.4 1993.7,435.3Z" style="fill:rgb(143,114,154);fill-rule:nonzero;"/>
        <path d="M1978.3,435.9C1974.3,436 1970.2,436.2 1966.2,436.3C1970.2,436.2 1974.3,436 1978.3,435.9Z" style="fill:rgb(143,114,154);fill-rule:nonzero;"/>
        <path d="M1981.3,435.8C1980.3,435.8 1979.3,435.9 1978.3,435.9C1979.3,435.8 1980.3,435.8 1981.3,435.8Z" style="fill:rgb(143,114,154);fill-rule:nonzero;"/>
        <path d="M2018.9,433.9C2022.5,433.7 2026.1,433.5 2029.7,433.2C2030.3,433.2 2030.9,433.1 2031.5,433.1L2031.9,433.1C2026.8,433.4 2021.8,433.8 2016.7,434C2017.3,434 2018.1,434 2018.9,433.9Z" style="fill:rgb(143,114,154);fill-rule:nonzero;"/>
        <path d="M2000.9,434.9L2011.7,434.3C2008.1,434.5 2004.5,434.7 2000.9,434.9Z" style="fill:rgb(143,114,154);fill-rule:nonzero;"/>
        <path d="M2000.9,434.9C1999.2,435 1997.6,435.1 1995.9,435.1C1997.6,435.1 1999.2,435 2000.9,434.9Z" style="fill:rgb(143,114,154);fill-rule:nonzero;"/>
        <path d="M1931.1,437L1926.6,437L1931.1,437Z" style="fill:rgb(143,114,154);fill-rule:nonzero;"/>
        <path d="M1910.8,437.1C1905.8,437.1 1900.8,437.1 1895.8,437C1900.7,437 1905.7,437.1 1910.8,437.1Z" style="fill:rgb(143,114,154);fill-rule:nonzero;"/>
        <path d="M1960.9,436.4C1957.2,436.5 1953.6,436.6 1949.9,436.7C1953.6,436.6 1957.2,436.5 1960.9,436.4Z" style="fill:rgb(143,114,154);fill-rule:nonzero;"/>
        <path d="M1915.5,437.1L1910.7,437.1L1915.5,437.1Z" style="fill:rgb(143,114,154);fill-rule:nonzero;"/>
        <path d="M2011.7,434.3C2013.3,434.2 2015,434.1 2016.6,434C2015.8,434 2015,434.1 2014.1,434.1C2013.3,434.3 2012.5,434.3 2011.7,434.3Z" style="fill:rgb(143,114,154);fill-rule:nonzero;"/>
        <path d="M1949.9,436.7C1948.5,436.7 1947,436.8 1945.6,436.8C1947.1,436.7 1948.5,436.7 1949.9,436.7Z" style="fill:rgb(143,114,154);fill-rule:nonzero;"/>
        <path d="M1945.6,436.8C1940.8,436.9 1935.9,437 1931.1,437C1936,436.9 1940.8,436.8 1945.6,436.8Z" style="fill:rgb(143,114,154);fill-rule:nonzero;"/>
        <path d="M1926.6,437C1922.9,437 1919.2,437 1915.5,437.1C1919.2,437 1922.9,437 1926.6,437Z" style="fill:rgb(143,114,154);fill-rule:nonzero;"/>
        <path d="M2069.4,430.1C2065.4,430.5 2061.4,430.8 2057.4,431.1C2061.4,430.9 2065.4,430.5 2069.4,430.1Z" style="fill:rgb(143,114,154);fill-rule:nonzero;"/>
        <path d="M1834.3,435.6C1837.4,435.7 1840.6,435.8 1843.7,435.9C1840.6,435.8 1837.5,435.7 1834.3,435.6Z" style="fill:rgb(143,114,154);fill-rule:nonzero;"/>
        <path d="M1822,435.1C1824.7,435.2 1827.3,435.3 1830,435.4C1827.3,435.4 1824.6,435.3 1822,435.1Z" style="fill:rgb(143,114,154);fill-rule:nonzero;"/>
        <path d="M277.8,480.9C272.4,480.8 267,480.7 261.6,480.5C266.9,480.7 272.4,480.8 277.8,480.9Z" style="fill:rgb(143,114,154);fill-rule:nonzero;"/>
        <path d="M310.7,481.2L294.7,481.2L310.7,481.2Z" style="fill:rgb(143,114,154);fill-rule:nonzero;"/>
        <path d="M294.7,481.1C289.2,481.1 283.6,481 278.1,480.9C283.7,481 289.2,481.1 294.7,481.1Z" style="fill:rgb(143,114,154);fill-rule:nonzero;"/>
        <path d="M1846.7,436C1850.1,436.1 1853.6,436.2 1857,436.3C1853.6,436.2 1850.1,436.2 1846.7,436Z" style="fill:rgb(143,114,154);fill-rule:nonzero;"/>
        <path d="M1809.5,434.6C1811.5,434.7 1813.4,434.8 1815.4,434.9C1813.4,434.8 1811.5,434.7 1809.5,434.6Z" style="fill:rgb(143,114,154);fill-rule:nonzero;"/>
        <path d="M1859,436.4C1862.7,436.5 1866.4,436.6 1870.1,436.6C1866.4,436.6 1862.7,436.5 1859,436.4Z" style="fill:rgb(143,114,154);fill-rule:nonzero;"/>
        <path d="M259.2,480.4C254,480.2 248.7,480.1 243.5,479.8C248.8,480.1 254,480.3 259.2,480.4Z" style="fill:rgb(143,114,154);fill-rule:nonzero;"/>
        <path d="M225,479C230.4,479.3 235.8,479.5 241.2,479.8C235.8,479.5 230.4,479.3 225,479Z" style="fill:rgb(143,114,154);fill-rule:nonzero;"/>
        <path d="M1871.3,436.7C1875.2,436.8 1879.1,436.8 1882.9,436.9C1879,436.8 1875.1,436.7 1871.3,436.7Z" style="fill:rgb(143,114,154);fill-rule:nonzero;"/>
        <path d="M2018.9,433.9C2022.5,433.7 2026.1,433.5 2029.7,433.2C2026,433.5 2022.5,433.7 2018.9,433.9Z" style="fill:rgb(152,121,164);fill-rule:nonzero;"/>
        <path d="M2169.4,417.9C2169.6,417.9 2169.8,417.8 2170,417.8C2166.6,418.3 2163.2,418.9 2159.8,419.4C2159.9,419.4 2160.1,419.4 2160.2,419.3C2163.3,418.8 2166.3,418.3 2169.4,417.9Z" style="fill:rgb(152,121,164);fill-rule:nonzero;"/>
        <path d="M2182.5,415.8C2182.6,415.8 2182.7,415.8 2182.9,415.7C2179.6,416.2 2176.2,416.8 2172.9,417.3L2173.1,417.3C2176.2,416.8 2179.4,416.3 2182.5,415.8Z" style="fill:rgb(152,121,164);fill-rule:nonzero;"/>
        <path d="M2156.6,419.8C2156.8,419.8 2157.1,419.7 2157.3,419.7C2153.7,420.2 2150.1,420.7 2146.6,421.3C2146.8,421.3 2147,421.2 2147.3,421.2C2150.4,420.7 2153.5,420.2 2156.6,419.8Z" style="fill:rgb(152,121,164);fill-rule:nonzero;"/>
        <path d="M2131.7,423.3C2132,423.3 2132.2,423.2 2132.5,423.2C2128.5,423.7 2124.5,424.2 2120.5,424.7C2120.9,424.7 2121.2,424.6 2121.6,424.6C2124.9,424.1 2128.3,423.7 2131.7,423.3Z" style="fill:rgb(152,121,164);fill-rule:nonzero;"/>
        <path d="M2199,413C2194.6,413.8 2190.3,414.5 2185.9,415.2L2186,415.2C2190.4,414.5 2194.7,413.7 2199,413Z" style="fill:rgb(152,121,164);fill-rule:nonzero;"/>
        <path d="M2144.2,421.6C2144.5,421.6 2144.7,421.5 2145,421.5C2141.2,422 2137.4,422.6 2133.6,423.1C2133.9,423.1 2134.2,423 2134.5,423C2137.7,422.5 2140.9,422 2144.2,421.6Z" style="fill:rgb(152,121,164);fill-rule:nonzero;"/>
        <path d="M2006.3,434.6C2008.9,434.5 2011.5,434.3 2014.1,434.2C2011.5,434.4 2008.9,434.5 2006.3,434.6Z" style="fill:rgb(152,121,164);fill-rule:nonzero;"/>
        <path d="M141.7,479.7L139.9,479.7L141.7,479.7Z" style="fill:rgb(152,121,164);fill-rule:nonzero;"/>
        <path d="M151.1,479.6L149.2,479.6C149.8,479.7 150.4,479.6 151.1,479.6Z" style="fill:rgb(152,121,164);fill-rule:nonzero;"/>
        <path d="M131.5,479.7L130.4,479.7L131.5,479.7Z" style="fill:rgb(152,121,164);fill-rule:nonzero;"/>
        <path d="M146.4,479.7L144.5,479.7L146.4,479.7Z" style="fill:rgb(152,121,164);fill-rule:nonzero;"/>
        <path d="M118.4,479.6L120.5,479.6L118.4,479.6Z" style="fill:rgb(152,121,164);fill-rule:nonzero;"/>
        <path d="M99.4,480C98.7,480 98,480.1 97.3,480.1C98.1,480 98.7,480 99.4,480Z" style="fill:rgb(152,121,164);fill-rule:nonzero;"/>
        <path d="M160.4,479.3C159.9,479.3 159.4,479.3 158.8,479.4C159.3,479.3 159.9,479.3 160.4,479.3Z" style="fill:rgb(152,121,164);fill-rule:nonzero;"/>
        <path d="M155.7,479.5C155.1,479.5 154.5,479.5 153.9,479.6C154.5,479.5 155.1,479.5 155.7,479.5Z" style="fill:rgb(152,121,164);fill-rule:nonzero;"/>
        <path d="M104.7,479.7C104,479.7 103.3,479.7 102.5,479.8C103.3,479.8 104,479.8 104.7,479.7Z" style="fill:rgb(152,121,164);fill-rule:nonzero;"/>
        <path d="M93.9,480.3C93.3,480.3 92.7,480.4 92.2,480.4C92.8,480.4 93.3,480.4 93.9,480.3Z" style="fill:rgb(152,121,164);fill-rule:nonzero;"/>
        <path d="M110,479.6L107.8,479.6L110,479.6Z" style="fill:rgb(152,121,164);fill-rule:nonzero;"/>
        <path d="M2031.8,433.1C2035.8,432.8 2039.8,432.5 2043.8,432.2C2039.7,432.5 2035.5,432.8 2031.4,433.1L2031.8,433.1Z" style="fill:rgb(152,121,164);fill-rule:nonzero;"/>
        <path d="M2044.4,432.2L2044.6,432.2C2048.7,431.9 2052.8,431.6 2056.9,431.2L2057.4,431.2C2061.4,430.9 2065.4,430.5 2069.4,430.2C2069.7,430.2 2069.9,430.2 2070.2,430.1C2074.1,429.7 2078,429.4 2081.9,429C2082.3,429 2082.7,428.9 2083,428.9C2086.8,428.5 2090.5,428.1 2094.3,427.7C2094.8,427.6 2095.3,427.6 2095.8,427.5C2099.4,427.1 2103.1,426.7 2106.7,426.3L2107.1,426.3C2102.8,426.8 2098.5,427.3 2094.3,427.7C2077.4,429.5 2060.6,431 2043.9,432.3C2044.1,432.2 2044.2,432.2 2044.4,432.2Z" style="fill:rgb(152,121,164);fill-rule:nonzero;"/>
        <path d="M2119.2,424.8C2119.4,424.8 2119.7,424.7 2119.9,424.7C2115.7,425.2 2111.6,425.7 2107.4,426.2C2107.8,426.1 2108.3,426.1 2108.7,426.1C2112.2,425.7 2115.7,425.3 2119.2,424.8Z" style="fill:rgb(152,121,164);fill-rule:nonzero;"/>
        <path d="M125.7,479.6L123.9,479.6L125.7,479.6Z" style="fill:rgb(152,121,164);fill-rule:nonzero;"/>
        <path d="M136.8,479.7L135.2,479.7L136.8,479.7Z" style="fill:rgb(152,121,164);fill-rule:nonzero;"/>
        <path d="M115.2,479.6L113,479.6L115.2,479.6Z" style="fill:rgb(152,121,164);fill-rule:nonzero;"/>
        <path d="M1694.8,434.2C1685.7,434.5 1676.7,434.7 1667.6,434.8C1676.7,434.8 1685.8,434.5 1694.8,434.2Z" style="fill:rgb(147,117,158);fill-rule:nonzero;"/>
        <path d="M896.8,445C894.7,445.4 892.7,445.7 890.6,446.1C892.6,445.8 894.7,445.4 896.8,445Z" style="fill:rgb(147,117,158);fill-rule:nonzero;"/>
        <path d="M888.6,446.5C887,446.8 885.4,447.1 883.8,447.4C885.4,447.1 887,446.8 888.6,446.5Z" style="fill:rgb(147,117,158);fill-rule:nonzero;"/>
        <path d="M881.3,447.8C879.8,448.1 878.4,448.3 876.9,448.6C878.3,448.4 879.8,448.1 881.3,447.8Z" style="fill:rgb(147,117,158);fill-rule:nonzero;"/>
        <path d="M897.4,444.9C912.4,442.3 927.4,439.9 942.6,437.4C927.3,440 912.4,442.4 897.4,444.9Z" style="fill:rgb(147,117,158);fill-rule:nonzero;"/>
        <path d="M874.2,449.1C872.8,449.4 871.4,449.6 869.9,449.9C871.3,449.7 872.7,449.4 874.2,449.1Z" style="fill:rgb(147,117,158);fill-rule:nonzero;"/>
        <path d="M860.1,451.9C858.5,452.2 856.9,452.6 855.4,452.9C857,452.6 858.5,452.3 860.1,451.9Z" style="fill:rgb(147,117,158);fill-rule:nonzero;"/>
        <path d="M853.1,453.4C850.7,453.9 848.4,454.4 846,455C848.4,454.4 850.7,453.9 853.1,453.4Z" style="fill:rgb(147,117,158);fill-rule:nonzero;"/>
        <path d="M867.1,450.5C865.7,450.8 864.2,451.1 862.8,451.4C864.2,451.1 865.7,450.8 867.1,450.5Z" style="fill:rgb(147,117,158);fill-rule:nonzero;"/>
        <path d="M949.2,436.3C947.1,436.6 945,437 943,437.3C945.1,437 947.1,436.7 949.2,436.3Z" style="fill:rgb(147,117,158);fill-rule:nonzero;"/>
        <path d="M734.5,408.1C711.3,407.4 685.4,411.6 662.5,406.4C649.1,403.4 639.8,394.3 629.6,385.6C620.1,377.5 611.1,371.8 598.3,372.1C585.9,372.3 574.2,377.3 562.1,379.7C541.9,383.7 531.4,375.9 520.4,359.9C514.1,350.8 508.4,336.4 497.8,331.6C475.7,321.6 455.3,350.9 434,350.3C414.7,349.8 410,319.1 404.6,305.7C400.1,294.5 394.7,284.4 382.3,281.9C371.9,279.8 360.5,282.7 350.2,284.2C329.1,287.2 307.1,287.5 289,300.1C279.3,306.9 267.5,327.4 254,323.6C246.5,321.5 241.4,313.4 236.8,307.8C230.1,299.6 223.9,291.5 218.7,282.2C213.2,272.4 207.4,255.4 197.8,248.9C191.8,244.8 182.6,245.3 175.7,245.8C163.4,246.7 149.8,252.4 137.3,248.8C127.9,246 122.1,235.6 116.8,228.2C109.7,218.3 101.7,209.1 94.2,199.5C79.7,181 66.8,167.3 41.8,171.1C26.5,173.5 16.6,185.4 0.1,182.9L0.1,297.5C18.5,304.6 34.5,320.4 52.1,331C60.1,335 72.1,326 81.1,322C96.1,315 111.1,312 126.1,321C145.1,334 153.1,358 177.1,362C201.1,366 224.1,362 249.1,357C297.1,349 324.1,391 360.1,414C364.1,416 368.1,417 372.1,417C423.1,414 478.1,381 521.1,421C533.1,431 545.1,436 558.1,435C561.1,435 564.1,438 567.1,438C589.1,439 611.1,439 633.1,438C636.1,438 639.1,435 642.1,435C649.1,435 654.1,434 660.1,433C676.1,429 691.1,433 705.1,439C773,469.5 847.7,456.7 915.4,433.8C898.2,432.3 881.1,430.3 864,427.5C841.5,423.9 819,420.7 796.5,417C775.6,413.6 755.6,408.7 734.5,408.1Z" style="fill:rgb(222,176,192);fill-rule:nonzero;"/>
        <path d="M716.6,471.7L711.2,471.7C713,471.6 714.8,471.7 716.6,471.7Z" style="fill:rgb(229,181,197);fill-rule:nonzero;"/>
        <path d="M710,471.6C708.6,471.6 707.2,471.5 705.7,471.5C707.1,471.5 708.6,471.6 710,471.6Z" style="fill:rgb(229,181,197);fill-rule:nonzero;"/>
        <path d="M704.1,471.5C702.8,471.5 701.4,471.4 700,471.4C701.4,471.4 702.8,471.4 704.1,471.5Z" style="fill:rgb(229,181,197);fill-rule:nonzero;"/>
        <path d="M698.5,471.3C696.7,471.2 694.8,471.1 693,471C694.8,471.1 696.7,471.2 698.5,471.3Z" style="fill:rgb(229,181,197);fill-rule:nonzero;"/>
        <path d="M705,439C691,433 676,429 660,433C654,434 649,435 642,435C639,435 636,438 633,438C611,439 589,439 567,438C564,438 561,435 558,435C545,436 533,431 521,421C478,381 423,414 372,417C368,417 364,416 360,414C324,391 297,349 249,357C224,362 201,366 177,362C153,358 145,334 126,321C111,312 96,315 81,322C72,326 60,335 52,331C34.4,320.3 18.4,304.5 0,297.5L0,412C40.5,414.1 81.5,405.9 123,399.1C152,394.1 175,417.1 201,432.1C206,434.1 210,430.1 213,430.1C234,428.1 255,429.1 276,429.1C296,430.1 313,447.1 333,442.1C373,434.1 409,437.1 447,449.1C454,451.1 461,451.1 468,450.1C475,449.1 482,445.1 489,445.1C511,442.1 533,444.1 555,442.1C577,439.1 600,441.1 620,446.1C652.9,455 684.5,465.5 716.6,471.8C760,471.9 801.9,465.3 846,455.1C848.4,454.6 850.7,454 853.1,453.5C853.9,453.3 854.6,453.2 855.4,453C857,452.7 858.6,452.3 860.1,452C861,451.8 861.9,451.6 862.8,451.5C864.2,451.2 865.7,450.9 867.1,450.6C868,450.4 868.9,450.2 869.9,450.1C871.3,449.8 872.7,449.5 874.2,449.3C875.1,449.1 876,449 876.9,448.8C878.4,448.5 879.8,448.3 881.3,448C882.1,447.8 883,447.7 883.8,447.5C885.4,447.2 887,446.9 888.6,446.6C889.3,446.5 889.9,446.4 890.6,446.2C892.7,445.8 894.7,445.5 896.8,445.1C897,445.1 897.2,445 897.4,445C912.4,442.4 927.4,440 942.6,437.5C942.7,437.5 942.9,437.5 943,437.4C945.1,437.1 947.1,436.7 949.2,436.4C946.7,436.2 944.2,436 941.7,435.9C932.9,435.3 924.1,434.6 915.4,433.9C847.6,456.7 772.9,469.5 705,439Z" style="fill:rgb(229,181,197);fill-rule:nonzero;"/>
        <path d="M555,442C533,444 511,442 489,445C482,445 475,449 468,450C461,451 454,451 447,449C409,437 373,434 333,442C313,447 296,430 276,429C255,429 234,428 213,430C210,430 206,434 201,432C175,417 152,394 123,399C81.5,405.8 40.5,414 0,411.9L0,478.8C28.4,482.2 56.8,485 87,480.9C88.7,480.7 90.5,480.5 92.2,480.4C92.8,480.3 93.4,480.3 93.9,480.3C95.1,480.2 96.2,480.1 97.4,480.1C98.1,480.1 98.8,480 99.5,480C100.5,479.9 101.6,479.9 102.6,479.8C103.3,479.8 104,479.7 104.8,479.7C105.8,479.7 106.8,479.6 107.9,479.6L151.3,479.6C152.2,479.6 153.2,479.6 154.1,479.5C154.7,479.5 155.3,479.5 155.9,479.4C156.9,479.4 158,479.3 159,479.3C159.5,479.3 160,479.3 160.6,479.2C162.1,479.1 163.7,479 165.2,478.9C185.2,477.9 205.2,476.9 225.2,478.9C230.6,479.2 236,479.4 241.4,479.7C242.2,479.7 243,479.8 243.8,479.8C249,480 254.3,480.2 259.5,480.4C260.3,480.4 261,480.4 261.8,480.5C267.2,480.7 272.6,480.8 278,480.9L278.4,480.9C284.2,481 289.9,481.1 295.7,481.1L312.6,481.1C322.7,481.1 332.8,480.9 342.9,480.7L344.5,480.7C349.6,480.6 354.6,480.5 359.7,480.3L359.8,480.3C364.8,480.1 369.9,480 374.9,479.8L376.2,479.8C381.2,479.6 386.2,479.4 391.2,479.1C391.7,479.1 392.1,479.1 392.6,479C397.5,478.8 402.5,478.5 407.4,478.2L407.8,478.2C412.8,477.9 417.8,477.6 422.7,477.3C423.4,477.3 424.1,477.2 424.8,477.2C434.7,476.6 444.5,475.9 454.4,475.1C455.2,475 456,475 456.8,474.9C461.7,474.5 466.5,474.1 471.4,473.7C471.8,473.7 472.2,473.6 472.6,473.6C477.2,473.2 481.7,472.8 486.3,472.4C487.1,472.3 487.9,472.3 488.6,472.2C493.4,471.8 498.1,471.3 502.9,470.9C503.7,470.8 504.6,470.7 505.4,470.7C509.8,470.3 514.2,469.9 518.6,469.4C519.2,469.3 519.8,469.3 520.4,469.2C525.1,468.7 529.9,468.2 534.6,467.7C535.7,467.6 536.7,467.5 537.8,467.4C542.6,466.9 547.4,466.4 552.2,465.9C587.2,462.9 622.2,462.9 657.2,465.9C666.2,466.9 675.2,467.9 684.2,467.9C687.2,467.9 690.2,470.9 693.2,470.9C695,471 696.9,471.1 698.7,471.2C699.2,471.2 699.7,471.2 700.3,471.3C701.7,471.4 703,471.4 704.4,471.4L706,471.4C707.4,471.4 708.8,471.5 710.3,471.5L716.9,471.5C684.8,465.2 653.1,454.7 620.3,445.8C600,441 577,439 555,442Z" style="fill:rgb(237,187,204);fill-rule:nonzero;"/>
        <path d="M2203.7,159.1C2187.8,156.4 2172.7,154.1 2156.7,157.4C2144.2,160 2135.3,164.1 2128.1,175C2120.5,186.4 2116.3,198.3 2105,206.9C2095.9,213.8 2089.8,213.8 2078.5,212.3C2066.5,210.7 2055.3,209.7 2043.3,211.8C2029.9,214.2 2018.6,219.8 2011.8,232.1C2006.9,241 2005.1,251.9 1998.7,260.1C1982.7,280.4 1947.6,270.3 1925.7,276.2C1907.7,281.1 1895.1,291.6 1879.7,301.2C1865.9,309.9 1852.5,311.4 1836.5,312C1823.2,312.5 1810.5,315.1 1797.7,318.3C1768.3,325.8 1750.2,342.2 1730.8,365.2C1711.4,388.3 1695.8,413.5 1671.7,432.3C1670.4,433.1 1669.2,433.9 1667.9,434.7C1669.1,434.4 1670.3,434 1671.5,433.6C1672.5,433.3 1673.5,433 1674.4,432.7C1674.6,432.6 1674.8,432.6 1675,432.5C1677.3,431.7 1679.6,430.9 1681.9,430.1C1716,417.5 1746.9,395.8 1779.1,374.9C1784.1,371.9 1789.1,370.9 1794.1,371.9C1797.1,372.9 1800.1,376.9 1803.1,376.9C1809.1,377.9 1815.1,379.9 1821.1,379.9C1840.1,381.9 1860.1,383.9 1879.1,369.9C1891.1,360.9 1906.1,355.9 1920.1,351.9C1940.1,345.9 1960.1,356.9 1980.1,354.9C1987.1,354.9 1995.1,349.9 2000.1,343.9C2021.1,315.9 2052.1,308.9 2086.1,317.9C2095.1,320.9 2105.1,308.9 2116.1,300.9C2125.1,293.9 2134.1,284.9 2145.1,285.9C2170.1,288.9 2192.1,312.9 2216.1,298.9C2236,288.1 2254.3,275.2 2272.1,262.1L2272.1,153.3C2266.5,154.6 2261.2,155.9 2256.3,156.9C2237.7,160.6 2222.7,162.4 2203.7,159.1Z" style="fill:rgb(222,176,192);fill-rule:nonzero;"/>
        <path d="M1671.4,433.7C1670.2,434.1 1669,434.4 1667.8,434.8C1669,434.4 1670.2,434 1671.4,433.7Z" style="fill:rgb(229,181,197);fill-rule:nonzero;"/>
        <path d="M1674.3,432.7C1674.5,432.6 1674.7,432.6 1674.9,432.5C1674.7,432.6 1674.5,432.7 1674.3,432.7Z" style="fill:rgb(229,181,197);fill-rule:nonzero;"/>
        <path d="M2145,286C2134,285 2125,294 2116,301C2105,309 2095,321 2086,318C2052,309 2021,316 2000,344C1995,350 1987,355 1980,355C1960,357 1940,346 1920,352C1906,356 1891,361 1879,370C1860,384 1840,382 1821,380C1815,380 1809,378 1803,377C1800,377 1797,373 1794,372C1789,371 1784,372 1779,375C1746.8,395.8 1715.9,417.5 1681.8,430.2C1701.9,427.6 1722.1,426.6 1743,426C1769,426 1790,399 1821,405C1826,406 1831,409 1836,408C1840,407 1844,405 1848,405C1885,404 1921,406 1957,392C1969,387 1984,384 1998,388C2024,396 2049,382 2070,366C2079,360 2090,359 2100,358C2119,355 2136,366 2154,362C2167,358 2180,353 2193,350C2218,345 2242,348 2265,336C2267.3,334.7 2269.7,333.3 2272,332L2272,262.2C2254.2,275.3 2235.9,288.2 2216,299C2192,313 2170,289 2145,286Z" style="fill:rgb(229,181,197);fill-rule:nonzero;"/>
        <path d="M2154,362C2136,366 2119,355 2100,358C2090,359 2079,360 2070,366C2049,382 2024,396 1998,388C1984,384 1969,387 1957,392C1921,406 1885,404 1848,405C1844,405 1840,407 1836,408C1831,409 1826,406 1821,405C1790,399 1769,426 1743,426C1722.1,426.6 1701.9,427.6 1681.8,430.2C1679.5,431 1677.2,431.9 1674.9,432.6C1674.7,432.7 1674.5,432.7 1674.3,432.8C1673.3,433.1 1672.4,433.4 1671.4,433.7C1670.2,434.1 1669,434.4 1667.8,434.8C1667.7,434.8 1667.7,434.9 1667.6,434.9C1685.7,434.8 1703.8,434 1722,433C1747,431 1772,432 1797,434C1801.2,434.2 1805.3,434.4 1809.5,434.6C1811.5,434.7 1813.4,434.8 1815.4,434.9C1817.6,435 1819.8,435.1 1822,435.2C1824.7,435.3 1827.3,435.4 1830,435.5C1831.5,435.6 1832.9,435.6 1834.4,435.7C1837.5,435.8 1840.7,435.9 1843.8,436C1844.8,436 1845.8,436.1 1846.7,436.1C1850.1,436.2 1853.6,436.3 1857,436.4C1857.7,436.4 1858.3,436.4 1859,436.5C1862.7,436.6 1866.4,436.7 1870.1,436.7L1871.3,436.7C1875.2,436.8 1879.1,436.8 1882.9,436.9L1883.5,436.9C1887.6,437 1891.6,437 1895.7,437C1928.4,437.3 1961,436.7 1993.7,435.2C1997.9,435 2002.1,434.8 2006.3,434.6C2008.9,434.5 2011.5,434.3 2014.1,434.2C2015.7,434.1 2017.3,434 2018.8,433.9C2022.4,433.7 2026,433.5 2029.6,433.2C2030.2,433.2 2030.8,433.1 2031.4,433.1C2035.5,432.8 2039.7,432.5 2043.8,432.2L2043.9,432.2C2060.7,430.9 2077.5,429.4 2094.3,427.6C2098.6,427.1 2102.9,426.7 2107.1,426.2L2107.3,426.2C2111.5,425.7 2115.6,425.2 2119.8,424.7C2120,424.7 2120.2,424.7 2120.4,424.6C2124.4,424.1 2128.4,423.6 2132.4,423.1C2132.8,423.1 2133.1,423 2133.5,423C2137.3,422.5 2141.1,422 2144.9,421.4C2145.5,421.3 2146,421.2 2146.6,421.2C2150.2,420.7 2153.8,420.2 2157.3,419.6C2158.1,419.5 2158.9,419.4 2159.7,419.3C2163.1,418.8 2166.5,418.3 2169.9,417.7C2170.9,417.5 2171.9,417.4 2172.8,417.2C2176.1,416.7 2179.5,416.1 2182.8,415.6C2183.8,415.4 2184.9,415.3 2185.9,415.1C2190.2,414.4 2194.6,413.6 2199,412.9C2223.9,408.2 2247.9,401.2 2272,395.6L2272,332C2269.7,333.3 2267.3,334.7 2265,336C2242,348 2218,345 2193,350C2180,353 2167,358 2154,362Z" style="fill:rgb(237,187,204);fill-rule:nonzero;"/>
        <path d="M2185.9,415.2C2184.9,415.4 2183.8,415.5 2182.8,415.7C2182.7,415.7 2182.6,415.7 2182.4,415.8C2179.3,416.3 2176.2,416.8 2173,417.3L2172.8,417.3C2171.8,417.5 2170.8,417.6 2169.9,417.8C2169.7,417.8 2169.5,417.9 2169.3,417.9C2166.2,418.4 2163.2,418.9 2160.1,419.3C2160,419.3 2159.8,419.3 2159.7,419.4C2158.9,419.5 2158.1,419.6 2157.3,419.7C2157.1,419.7 2156.8,419.8 2156.6,419.8C2153.5,420.3 2150.4,420.7 2147.2,421.2C2147,421.2 2146.8,421.3 2146.5,421.3C2145.9,421.4 2145.4,421.5 2144.8,421.5C2144.5,421.5 2144.3,421.6 2144,421.6C2140.7,422.1 2137.5,422.5 2134.3,422.9C2134,422.9 2133.7,423 2133.4,423C2133,423 2132.7,423.1 2132.3,423.1C2132,423.1 2131.8,423.2 2131.5,423.2C2128.1,423.6 2124.8,424.1 2121.4,424.5C2121,424.5 2120.7,424.6 2120.3,424.6C2120.1,424.6 2119.9,424.6 2119.7,424.7C2119.5,424.7 2119.2,424.8 2119,424.8C2115.5,425.2 2112,425.7 2108.5,426.1C2108.1,426.2 2107.6,426.2 2107.2,426.2L2106.6,426.2C2103,426.6 2099.3,427 2095.7,427.4C2095.2,427.5 2094.7,427.5 2094.2,427.6C2090.4,428 2086.6,428.4 2082.9,428.8C2082.5,428.8 2082.1,428.9 2081.8,428.9C2077.9,429.3 2074,429.7 2070.1,430C2069.8,430 2069.6,430 2069.3,430.1C2065.3,430.5 2061.3,430.8 2057.3,431.1L2056.8,431.1C2052.7,431.4 2048.6,431.8 2044.5,432.1L2044.3,432.1C2040.1,432.4 2035.9,432.7 2031.8,433L2031.7,433C1986.3,436.1 1941.1,437.2 1895.7,436.9C1891.6,436.9 1887.6,436.8 1883.5,436.8L1882.9,436.8C1879,436.7 1875.1,436.7 1871.3,436.6L1870.1,436.6C1866.4,436.5 1862.7,436.4 1859,436.4C1858.3,436.4 1857.7,436.4 1857,436.3C1853.6,436.2 1850.1,436.1 1846.7,436C1845.7,436 1844.7,435.9 1843.8,435.9C1840.7,435.8 1837.5,435.7 1834.4,435.6C1832.9,435.5 1831.5,435.5 1830,435.4C1827.3,435.3 1824.7,435.2 1822,435.1C1819.8,435 1817.6,434.9 1815.4,434.8C1813.4,434.7 1811.5,434.6 1809.5,434.5C1805.3,434.3 1801.2,434.1 1797,433.9C1772,431.9 1747,430.9 1722,432.9C1703.9,433.9 1685.8,434.6 1667.6,434.8C1648.7,435 1629.8,434.5 1611,432.9C1595,430.9 1579,432.9 1563,430.9C1541,427.9 1521,430.9 1500,427.9C1475,425.9 1452,415.9 1428,414.9C1376,412.9 1329,393.9 1278,387.9C1232,382.9 1189,395.9 1143,404.9C1137,405.9 1131,404.9 1125,404.9C1070,411.9 1019,424.9 963,433.9C956.3,435.1 949.6,436.2 943,437.3C942.9,437.3 942.7,437.3 942.6,437.4C927.3,439.9 912.4,442.3 897.4,444.9C897.2,444.9 897,445 896.8,445C894.7,445.4 892.7,445.7 890.6,446.1C889.9,446.2 889.3,446.3 888.6,446.5C887,446.8 885.4,447.1 883.8,447.4C883,447.6 882.1,447.7 881.3,447.9C879.8,448.2 878.4,448.4 876.9,448.7C876,448.9 875.1,449 874.2,449.2C872.8,449.5 871.4,449.7 869.9,450C869,450.2 868.1,450.4 867.1,450.5C865.7,450.8 864.2,451.1 862.8,451.4C861.9,451.6 861,451.8 860.1,451.9C858.5,452.2 856.9,452.6 855.4,452.9C854.6,453.1 853.9,453.2 853.1,453.4C850.7,453.9 848.4,454.4 846,455C801.9,465.2 760,471.7 716.6,471.7L710,471.7C708.6,471.7 707.2,471.6 705.7,471.6L704.1,471.6C702.8,471.6 701.4,471.5 700,471.5C699.5,471.5 699,471.5 698.4,471.4C696.6,471.3 694.7,471.2 692.9,471.1C689.9,471.1 686.9,468.1 683.9,468.1C674.9,468.1 665.9,467.1 656.9,466.1C621.9,463.1 586.9,463.1 551.9,466.1C547.1,466.6 542.3,467.1 537.5,467.6C536.4,467.7 535.4,467.8 534.3,467.9C529.5,468.4 524.8,468.9 520.1,469.4C519.5,469.5 518.9,469.5 518.3,469.6C513.9,470 509.5,470.5 505.1,470.9C504.3,471 503.4,471.1 502.6,471.1C497.8,471.6 493.1,472 488.3,472.4C487.5,472.5 486.7,472.5 486,472.6C481.4,473 476.9,473.4 472.3,473.8C471.9,473.8 471.5,473.9 471.1,473.9C466.2,474.3 461.4,474.7 456.5,475.1C455.7,475.2 454.9,475.2 454.1,475.3C444.2,476.1 434.4,476.7 424.5,477.4C423.8,477.4 423.1,477.5 422.4,477.5C417.4,477.8 412.4,478.1 407.5,478.4L407.1,478.4C402.2,478.7 397.2,478.9 392.3,479.2C391.8,479.2 391.4,479.2 390.9,479.3C385.9,479.5 380.9,479.8 375.9,480L374.6,480C369.6,480.2 364.5,480.4 359.5,480.5L359.4,480.5C354.3,480.7 349.3,480.8 344.2,480.9L342.6,480.9C332.5,481.1 322.4,481.2 312.3,481.3L310.7,481.3C299.9,481.3 289,481.2 278.1,481L277.7,481C272.3,480.9 266.9,480.8 261.5,480.6C260.7,480.6 260,480.6 259.2,480.5C254,480.3 248.7,480.2 243.5,479.9C242.7,479.9 241.9,479.8 241.1,479.8C235.7,479.6 230.3,479.3 224.9,479C204.9,477 184.9,478 164.9,479C163.4,479.1 161.8,479.2 160.3,479.3C159.8,479.3 159.3,479.3 158.7,479.4C157.7,479.5 156.6,479.5 155.6,479.5C155,479.5 154.4,479.5 153.8,479.6C152.9,479.6 151.9,479.7 151,479.7L107.6,479.7C106.6,479.7 105.6,479.8 104.5,479.8C103.8,479.8 103.1,479.8 102.3,479.9C101.3,479.9 100.2,480 99.2,480.1C98.5,480.1 97.8,480.2 97.1,480.2C95.9,480.3 94.8,480.4 93.6,480.4C93,480.4 92.4,480.5 91.9,480.5C90.2,480.6 88.4,480.8 86.7,481C56.5,485 28.1,482.3 -0.3,478.9L-0.3,538.7C23.2,544.2 46.8,548.2 71.7,544.1C123.7,537.1 171.7,538.1 224.7,528.1C236.7,525.1 247.7,521.1 260.7,519.1C296.7,514.1 330.7,528.1 350.7,558.1C386.7,562.1 420.7,543.1 455.7,542.1C487.7,541.1 512.7,565.1 542.7,576.1C560.7,582.1 580.7,583.1 599.7,580.1C622.7,577.1 645.7,577.1 668.7,573.1C675.7,572.1 682.7,573.1 689.7,573.1C730.7,569.1 765.7,549.1 804.7,536.1C843.7,522.1 882.7,510.1 919.7,493.1C949.7,480.1 981.7,467.1 1012.7,476.1C1065.7,490.1 1116.7,497.1 1169.7,495.1C1172.7,495.1 1175.7,498.1 1178.7,497.1C1197.7,494.1 1214.7,495.1 1232.7,495.1C1234.7,495.1 1236.7,498.1 1238.7,498.1C1268.7,498.1 1298.7,502.1 1324.7,515.1C1348.7,526.1 1368.7,553.1 1397.7,548.1C1405.7,547.1 1413.7,547.1 1421.7,545.1C1469.7,532.1 1513.7,508.1 1562.7,505.1C1595.7,503.1 1628.7,504.1 1661.7,496.1C1756.7,473.1 1847.7,459.1 1943.7,453.1C1954.7,453.1 1965.7,454.1 1976.7,452.1C2077.8,434.6 2173.8,451.8 2271.7,455.5L2271.7,395.8C2247.6,401.4 2223.6,408.5 2198.7,413.1C2194.4,413.9 2190.1,414.6 2185.8,415.3C2186,415.2 2186,415.2 2185.9,415.2Z" style="fill:rgb(202,150,179);fill-rule:nonzero;"/>
        <path d="M1944,453C1848,459 1757,473 1662,496C1629,504 1596,503 1563,505C1514,508 1470,532 1422,545C1414,547 1406,547 1398,548C1369,553 1349,526 1325,515C1299,502 1269,498 1239,498C1237,498 1235,495 1233,495C1215,495 1198,494 1179,497C1176,498 1173,495 1170,495C1117,497 1066,490 1013,476C982,467 950,480 920,493C883,510 844,522 805,536C766,549 731,569 690,573C683,573 676,572 669,573C646,577 623,577 600,580C581,583 561,582 543,576C513,565 488,541 456,542C421,543 387,562 351,558C331,528 297,514 261,519C248,521 237,525 225,528C172,538 124,537 72,544C47.1,548.1 23.5,544.1 0,538.6L0,683.6C50.7,661.9 100.8,640.5 151,617C171,607 190,597 210,588C218,584 226,585 234,585C236,585 238,583 240,582C246,581 252,581 258,582C260,583 262,584 264,585C268,585 272,584 276,585C304,593 331,600 360,604C368,605 376,610 384,611C394,613 404,613 414,614C451,616 488,618 525,613C577,606 624,624 675,629C741,636 804,613 865,587C873,583 884,581 894,578C927,568 960,561 993,551C1052,532 1115,534 1176,535C1213,536 1247,548 1284,556C1305,561 1325,571 1347,573C1352,574 1357,577 1362,578C1369,580 1376,578 1383,579C1389,581 1395,582 1401,582C1402,582 1403,584 1404,585C1408,586 1412,585 1416,585C1418,586 1420,587 1422,588C1430,589 1438,588 1446,590C1465,594 1484,592 1503,591C1505,591 1507,588 1509,588C1517,587 1525,588 1533,588C1536,587 1539,585 1542,585C1564,586 1583,578 1605,575C1619,573 1633,566 1647,562C1705,545 1759,534 1818,520C1864,510 1907,500 1953,496C2002,492 2051,494 2100,495C2102,495 2104,497 2106,498C2116,499 2126,499 2136,500C2179,504 2222,503 2265,500C2267.3,499.7 2269.7,499.6 2272,499.5L2272,455.4C2174.1,451.7 2078.1,434.6 1977,452C1966,454 1955,453 1944,453Z" style="fill:rgb(244,199,203);fill-rule:nonzero;"/>
        <path d="M2136,500C2126,499 2116,499 2106,498C2104,497 2102,495 2100,495C2051,494 2002,492 1953,496C1907,500 1864,510 1818,520C1759,534 1705,545 1647,562C1633,566 1619,573 1605,575C1583,578 1564,586 1542,585C1539,585 1536,587 1533,588C1525,588 1517,587 1509,588C1507,588 1505,591 1503,591C1484,592 1465,594 1446,590C1438,588 1430,589 1422,588C1420,587 1418,586 1416,585C1412,585 1408,586 1404,585C1403,584 1402,582 1401,582C1395,582 1389,581 1383,579C1376,578 1369,580 1362,578C1357,577 1352,574 1347,573C1325,571 1305,561 1284,556C1247,548 1213,536 1176,535C1115,534 1052,532 993,551C960,561 927,568 894,578C884,581 873,583 865,587C804,613 741,636 675,629C624,624 577,606 525,613C488,618 451,616 414,614C404,613 394,613 384,611C376,610 368,605 360,604C331,600 304,593 276,585C272,584 268,585 264,585C262,584 260,583 258,582C252,581 246,581 240,582C238,583 236,585 234,585C226,585 218,584 210,588C190,597 171,607 151,617C100.8,640.5 50.7,662 0,683.6L0,755.4C5,753.7 10.5,754.1 14,752C43,733 75,730 106,715C122,707 140,703 159,698C179,692 198,686 216,672C218,671 221,673 222,672C238,656 257,644 279,640C294,638 307,638 321,634C329,632 337,633 345,633C348,634 351,636 354,636C375,634 392,643 411,651C415,652 419,650 423,651C441,658 459,658 477,661C499,665 520,674 539,685C552,692 567,696 582,696C583,696 584,699 585,699C629,703 669,695 711,681C780,659 844,635 915,617C925,614 934,609 945,606C948,605 951,606 954,606C956,605 958,604 960,603C963,603 966,604 969,603C977,599 985,601 993,600C995,599 997,597 999,597C1010,596 1021,598 1032,597C1034,597 1036,594 1038,594C1061,596 1079,581 1101,576C1105,575 1109,577 1113,576C1124,572 1135,574 1146,573C1149,572 1152,570 1155,570C1176,569 1197,569 1218,570C1223,571 1228,574 1233,575C1253,579 1270,586 1290,591C1296,592 1302,590 1308,592C1342,601 1372,617 1405,628C1418,633 1431,639 1446,640C1451,641 1458,641 1464,642C1466,643 1468,644 1470,645C1478,646 1485,645 1494,647C1517,651 1541,652 1562,644C1604,627 1642,604 1686,592C1692,590 1698,589 1704,589C1730,588 1755,583 1782,578C1787,577 1792,574 1797,573C1824,573 1845,555 1872,550C1909,543 1941,527 1977,523C2015,519 2053,520 2091,523C2108,524 2125,527 2142,530C2149,532 2156,531 2163,531C2166,532 2169,533 2172,534C2180,535 2187,534 2196,536C2208,539 2220,536 2232,537C2235,537 2238,540 2241,540C2251.4,540.9 2261.1,540.2 2272,542L2272,499.5C2269.7,499.6 2267.3,499.7 2265,500C2222,503 2179,504 2136,500Z" style="fill:rgb(252,220,223);fill-rule:nonzero;"/>
        <path d="M2196,536C2187,534 2180,535 2172,534C2169,533 2166,532 2163,531C2156,531 2149,532 2142,530C2125,527 2108,524 2091,523C2053,520 2015,519 1977,523C1941,527 1909,543 1872,550C1845,555 1824,573 1797,573C1792,574 1787,577 1782,578C1755,583 1730,588 1704,589C1698,589 1692,590 1686,592C1642,604 1604,627 1562,644C1541,652 1517,651 1494,647C1485,645 1478,646 1470,645C1468,644 1466,643 1464,642C1458,641 1451,641 1446,640C1431,639 1418,633 1405,628C1372,617 1342,601 1308,592C1302,590 1296,592 1290,591C1270,586 1253,579 1233,575C1228,574 1223,571 1218,570C1197,569 1176,569 1155,570C1152,570 1149,572 1146,573C1135,574 1124,572 1113,576C1109,577 1105,575 1101,576C1079,581 1061,596 1038,594C1036,594 1034,597 1032,597C1021,598 1010,596 999,597C997,597 995,599 993,600C985,601 977,599 969,603C966,604 963,603 960,603C958,604 956,605 954,606C951,606 948,605 945,606C934,609 925,614 915,617C844,635 780,659 711,681C669,695 629,703 585,699C584,699 583,696 582,696C567,696 552,692 539,685C520,674 499,665 477,661C459,658 441,658 423,651C419,650 415,652 411,651C392,643 375,634 354,636C351,636 348,634 345,633C337,633 329,632 321,634C307,638 294,638 279,640C257,644 238,656 222,672C221,673 218,671 216,672C198,686 179,692 159,698C140,703 122,707 106,715C75,730 43,733 14,752C10.5,754.1 5,753.8 0,755.4L0,787.4C63.5,778.1 119.8,742.3 179,718C220,702 259,671 306,675C311,675 316,673 321,672C351,668 376,682 403,691C427,698 455,695 480,703C515,714 547,730 581,744C588.8,747 596.6,750 604.5,753C608,752.7 611.5,752.3 615,752C667,746 715,727 765,708C899,659 1033,644 1176,613C1193,610 1212,608 1226,614C1248,623 1263,645 1287,649C1358.7,662.2 1426.6,673 1491.5,698C1608.5,658.7 1719.7,616.5 1842,587C1913,570 1979,552 2049,546C2124.9,539.8 2199.6,550.7 2272,572L2272,542C2261.1,540.2 2251.4,540.9 2241,540C2238,540 2235,537 2232,537C2220,536 2208,539 2196,536Z" style="fill:rgb(253,229,231);fill-rule:nonzero;"/>
        <g transform="matrix(0.985392,0,0,1,9.62822,0)">
            <rect x="-9.771" y="918.08" width="2305.68" height="474.372" style="fill:rgb(47,56,89);"/>
        </g>
    </g>
    <g>
        <path d="M1071,712.1C1071,944 1259,1132 1490.9,1132C1722.8,1132 1910.8,944 1910.8,712.1C1910.8,480.2 1722.8,292.2 1490.9,292.2C1259,292.2 1071,480.2 1071,712.1ZM1873.3,712.1C1873.3,923.2 1702.1,1094.4 1491,1094.4C1279.9,1094.4 1108.7,923.2 1108.7,712.1C1108.7,501 1279.9,329.8 1491,329.8C1702.1,329.8 1873.3,501 1873.3,712.1Z" style="fill:rgb(254,236,237);fill-rule:nonzero;"/>
        <path d="M1108.7,712.1C1108.7,923.2 1279.9,1094.4 1491,1094.4C1702.1,1094.4 1873.3,923.2 1873.3,712.1C1873.3,501 1702.1,329.8 1491,329.8C1279.9,329.8 1108.7,501 1108.7,712.1ZM1821,712.1C1821,894.4 1673.2,1042.1 1491,1042.1C1308.8,1042.1 1161,894.3 1161,712.1C1161,529.9 1308.8,382.1 1491,382.1C1673.2,382.1 1821,529.9 1821,712.1Z" style="fill:rgb(253,229,231);fill-rule:nonzero;"/>
        <circle cx="1491" cy="712.1" r="330" style="fill:rgb(252,225,228);"/>
    </g>
    <g>
        <path d="M696.6,790.3C698,790.9 699.3,791.6 700.7,792.2C699.3,791.6 698,791 696.6,790.3Z" style="fill:rgb(124,116,163);fill-rule:nonzero;"/>
        <path d="M682.2,783.8C683.9,784.6 685.7,785.3 687.4,786.1C685.6,785.4 683.9,784.6 682.2,783.8Z" style="fill:rgb(124,116,163);fill-rule:nonzero;"/>
        <path d="M703.9,793.8C705.1,794.4 706.2,794.9 707.4,795.5C706.2,794.9 705.1,794.3 703.9,793.8Z" style="fill:rgb(124,116,163);fill-rule:nonzero;"/>
        <path d="M675,780.7C676.9,781.5 678.8,782.3 680.7,783.2C678.9,782.4 676.9,781.6 675,780.7Z" style="fill:rgb(124,116,163);fill-rule:nonzero;"/>
        <path d="M689.4,787C690.9,787.7 692.5,788.4 694,789.1C692.5,788.4 690.9,787.7 689.4,787Z" style="fill:rgb(124,116,163);fill-rule:nonzero;"/>
        <path d="M674.3,780.4C672.2,779.5 670.1,778.6 667.9,777.7C670.1,778.7 672.2,779.5 674.3,780.4Z" style="fill:rgb(124,116,163);fill-rule:nonzero;"/>
        <path d="M581,744C547,730 515,714 480,703C455,695 427,698 403,691C376,682 351,668 321,672C316,673 311,675 306,675C259,671 220,702 179,718C119.8,742.3 63.5,778.1 0,787.4L0,927.1C16.5,929.4 33.1,930.4 50,929C59,928 68,924 78,922C157,909 235,903 306,864C316,859 325,856 336,854C364,850 390,855 418,849C447,843 468,818 496,817C554.8,812.5 621.1,817 667.9,777.8C647,769.1 625.7,761 604.4,753C596.6,750 588.8,747 581,744Z" style="fill:rgb(124,116,163);fill-rule:nonzero;"/>
        <path d="M711.5,797.5C712.4,797.9 713.3,798.4 714.2,798.8C713.3,798.4 712.4,797.9 711.5,797.5Z" style="fill:rgb(124,116,163);fill-rule:nonzero;"/>
        <path d="M711.5,797.5C710.2,796.8 708.8,796.2 707.4,795.5C706.2,794.9 705.1,794.4 703.9,793.8C702.8,793.3 701.8,792.8 700.7,792.3C699.3,791.7 698,791 696.6,790.4C695.7,790 694.9,789.6 694,789.2C692.5,788.5 690.9,787.8 689.4,787.1C688.7,786.8 688.1,786.5 687.4,786.2C685.7,785.4 684,784.7 682.2,783.9C681.7,783.7 681.3,783.5 680.8,783.3C678.9,782.5 677,781.6 675.1,780.8C674.9,780.7 674.6,780.6 674.4,780.5C672.3,779.6 670.2,778.7 668,777.8C621.1,817 554.9,812.5 496,817C468,818 447,843 418,849C390,855 364,850 336,854C325,856 316,859 306,864C235,903 157,909 78,922C68,924 59,928 50,929C33.1,930.4 16.5,929.4 0,927.1L0,984.9C48.5,990.5 97.7,989.4 147,983C256,968 352,920 453,879C500,861 544,844 594,832C637.3,821.4 678,810.7 720.9,802.3C718.7,801.1 716.4,800 714.2,798.8C713.3,798.4 712.4,797.9 711.5,797.5Z" style="fill:rgb(119,112,157);fill-rule:nonzero;"/>
        <path d="M1836.1,862.2C1838.7,863.3 1841.3,864.3 1843.9,865.4C1841.3,864.3 1838.7,863.2 1836.1,862.2Z" style="fill:rgb(148,134,165);fill-rule:nonzero;"/>
        <path d="M621.9,751.1C622.4,751 622.9,751 623.4,750.9C622.9,751 622.4,751 621.9,751.1Z" style="fill:rgb(148,134,165);fill-rule:nonzero;"/>
        <path d="M1868.8,875.4C1863.3,873.2 1857.8,871 1852.3,868.7C1857.8,871 1863.3,873.2 1868.8,875.4Z" style="fill:rgb(148,134,165);fill-rule:nonzero;"/>
        <path d="M660.2,743.6C660.4,743.6 660.6,743.5 660.7,743.5C660.6,743.5 660.4,743.5 660.2,743.6Z" style="fill:rgb(148,134,165);fill-rule:nonzero;"/>
        <path d="M1599,750C1591,746 1583,745 1575,740C1547.7,722.4 1519.9,708.8 1491.5,698C1426.5,673.1 1358.7,662.3 1287,649C1263,645 1248,623 1226,614C1212,608 1193,610 1176,613C1033,644 899,659 765,708C734.8,719.5 705.4,730.9 675.3,739.5C696.5,750.7 720,757.5 746,758C763,758 781,763 798,769C837,784 878,796 920,791C1004,781 1086,773 1170,781C1223,785 1278,777 1329,793C1367,805 1400,825 1440,833C1457,836 1473,832 1490,835C1545,843 1597,844 1652,849C1676,851 1700,859 1724,859C1751.6,859.6 1779.3,856.7 1805.9,849.6L1806,849.6C1780.6,839 1755.3,828.2 1729.8,817.6C1724.5,815.4 1719.3,813.2 1714,811C1673,795 1638,770 1599,750Z" style="fill:rgb(148,134,165);fill-rule:nonzero;"/>
        <path d="M1820.6,855.7C1821.9,856.2 1823.1,856.7 1824.4,857.3C1823.1,856.7 1821.8,856.2 1820.6,855.7Z" style="fill:rgb(148,134,165);fill-rule:nonzero;"/>
        <path d="M630.1,749.9C630.4,749.9 630.7,749.8 631,749.8C630.7,749.8 630.4,749.8 630.1,749.9Z" style="fill:rgb(148,134,165);fill-rule:nonzero;"/>
        <path d="M637.3,748.6C637.6,748.5 637.9,748.5 638.2,748.4C637.9,748.5 637.6,748.5 637.3,748.6Z" style="fill:rgb(148,134,165);fill-rule:nonzero;"/>
        <path d="M645.1,747C645.4,746.9 645.7,746.9 646,746.8C645.7,746.9 645.4,747 645.1,747Z" style="fill:rgb(148,134,165);fill-rule:nonzero;"/>
        <path d="M1836.1,862.2C1832.2,860.6 1828.2,858.9 1824.3,857.3C1823,856.8 1821.8,856.3 1820.5,855.7C1815.6,853.7 1810.8,851.6 1805.9,849.6L1805.8,849.6C1779.2,856.7 1751.6,859.6 1723.9,859C1699.9,859 1675.9,851 1651.9,849C1596.9,844 1544.9,843 1489.9,835C1472.9,832 1456.9,836 1439.9,833C1399.9,825 1366.9,805 1328.9,793C1277.9,777 1222.9,785 1169.9,781C1085.9,773 1003.9,781 919.9,791C877.9,796 836.9,784 797.9,769C780.9,763 762.9,758 745.9,758C719.9,757.5 696.5,750.8 675.2,739.5C670.4,740.9 665.5,742.2 660.6,743.4C660.4,743.4 660.2,743.5 660.1,743.5C655.4,744.7 650.7,745.8 645.9,746.8C645.6,746.9 645.3,746.9 645,747C642.7,747.5 640.4,747.9 638.1,748.4C637.8,748.5 637.5,748.5 637.2,748.6C635.1,749 633,749.4 630.8,749.7C630.5,749.7 630.2,749.8 629.9,749.8C627.7,750.2 625.4,750.5 623.2,750.8C622.7,750.9 622.2,750.9 621.7,751C619.4,751.3 617.1,751.6 614.8,751.9C611.3,752.2 607.8,752.5 604.3,752.9C627.7,761.8 651.2,770.6 674.1,780.4C674.3,780.5 674.6,780.6 674.8,780.7C676.7,781.5 678.6,782.3 680.5,783.2C681,783.4 681.4,783.6 681.9,783.8C683.6,784.6 685.4,785.3 687.1,786.1C687.8,786.4 688.4,786.7 689.1,787C690.6,787.7 692.2,788.4 693.7,789.1C694.6,789.5 695.4,789.9 696.3,790.3C697.7,790.9 699,791.6 700.4,792.2C701.5,792.7 702.5,793.2 703.6,793.7C704.8,794.3 705.9,794.8 707.1,795.4C708.5,796.1 709.8,796.7 711.2,797.4C712.1,797.8 713,798.3 713.9,798.7C716.2,799.8 718.4,801 720.6,802.2C730.2,800.3 739.9,798.5 749.7,796.9C818.7,784.9 875.7,822.9 933.7,856.9C956.7,869.9 982.7,863.9 1007.7,856.9C1020.7,853.9 1033.7,851.9 1046.7,847.9C1107.7,828.9 1168.7,810.9 1232.7,816.9C1243.7,817.9 1254.7,818.9 1265.7,819.9C1270.7,819.9 1275.7,822.9 1280.7,824.9C1287.7,826.9 1294.7,825.9 1301.7,827.9C1313.7,831.9 1324.7,838.9 1337.7,842.9C1375.7,852.9 1410.7,861.9 1448.7,871.9C1462.7,875.9 1476.7,877.9 1490.7,877.9C1516.3,877 1541.8,876.5 1567.3,876.4C1627.5,876.3 1687.6,879.1 1748.7,886.9C1790.8,892.8 1829.1,885.1 1868.5,875.4C1863,873.2 1857.5,871 1852,868.7C1849.2,867.6 1846.4,866.4 1843.7,865.3C1841.3,864.3 1838.7,863.2 1836.1,862.2Z" style="fill:rgb(142,129,158);fill-rule:nonzero;"/>
        <path d="M1842,587C1740.2,611.5 1646.1,644.9 1549.9,678.1C1561.7,689.1 1574.3,697.9 1590,700C1626,705 1658,716 1685,741C1689,745 1695,747 1700,750C1720,757 1741,757 1760,768C1788,786 1814,800 1846,807C1853,809 1859,807 1866,808C1892,812 1917,813 1943,806C1975,798 2008,800 2042,797C2069,794 2097,798 2124,795C2173.8,788.7 2222.3,788.6 2272,782.9L2272,572C2199.6,550.7 2124.9,539.8 2049,546C1979,552 1913,570 1842,587Z" style="fill:rgb(124,116,163);fill-rule:nonzero;"/>
        <path d="M1504.9,693.4C1506.1,693 1507.3,692.6 1508.5,692.2C1507.3,692.6 1506.1,693 1504.9,693.4Z" style="fill:rgb(124,116,163);fill-rule:nonzero;"/>
        <path d="M1519,688.6C1520,688.3 1520.9,687.9 1521.9,687.6C1521,688 1520,688.3 1519,688.6Z" style="fill:rgb(124,116,163);fill-rule:nonzero;"/>
        <path d="M2042,797C2008,800 1975,798 1943,806C1917,813 1892,812 1866,808C1859,807 1853,809 1846,807C1814,800 1788,786 1760,768C1741,757 1720,757 1700,750C1695,747 1689,745 1685,741C1658,716 1626,705 1590,700C1574.3,697.9 1561.6,689.1 1549.9,678.1C1540.6,681.3 1531.3,684.5 1522,687.7C1521,688 1520.1,688.4 1519.1,688.7C1515.6,689.9 1512.1,691.1 1508.6,692.3C1507.4,692.7 1506.2,693.1 1505,693.5C1500.5,695 1496.1,696.5 1491.6,698C1519.9,708.9 1547.7,722.4 1575.1,740C1583.1,745 1591.1,746 1599.1,750C1638.1,770 1673.1,795 1714.1,811C1719.4,813.2 1724.7,815.4 1729.9,817.6C1755.3,828.2 1780.7,839 1806.1,849.6C1811,851.6 1815.8,853.7 1820.7,855.7C1822,856.2 1823.2,856.7 1824.5,857.3C1828.4,858.9 1832.4,860.6 1836.3,862.2C1838.9,863.3 1841.5,864.3 1844.1,865.4C1846.9,866.5 1849.7,867.7 1852.4,868.8C1857.9,871 1863.4,873.3 1868.9,875.5C1882.8,872.1 1896.8,868.4 1911.1,865C1959.1,854 2002.1,867 2049.1,878C2074.1,884 2098.1,876 2121.1,865C2146.1,853 2173.1,851 2202.1,847C2225.9,843.2 2249,839.9 2272.1,836.6L2272.1,782.9C2222.4,788.6 2173.9,788.7 2124.1,795C2097,798 2069,794 2042,797Z" style="fill:rgb(119,112,157);fill-rule:nonzero;"/>
    </g>
    <g>
        <path d="M619,803C568,817 516,821 467,840C458,843 449,849 440,853C412,865 387,876 361,891C332,907 305,921 274,929C236,939 201,949 164,959C141,965 120,971 98,974C65.4,978.3 30.2,976.9 0,964.8L0,984.9C48.5,990.5 97.7,989.4 147,983C256,968 352,920 453,879C500,861 544,844 594,832C637.3,821.4 678,810.7 720.9,802.3C708.7,795.9 696.2,790 683.5,784.4C662.2,790.7 640.8,797.4 619,803Z" style="fill:rgb(118,110,155);fill-rule:nonzero;"/>
        <path d="M1710,856C1682,864 1654,864 1626,861C1595,858 1565,859 1534,853C1502,847 1472,846 1440,838C1398,828 1362,805 1322,791C1247,763 1170,782 1092,794C1041,802 991,821 940,807C904,796 874,768 838,763C784.4,755.9 734.3,769.3 683.5,784.4C696.2,790 708.7,795.9 720.9,802.3C730.5,800.4 740.2,798.6 750,797C819,785 876,823 934,857C957,870 983,864 1008,857C1021,854 1034,852 1047,848C1108,829 1169,811 1233,817C1244,818 1255,819 1266,820C1271,820 1276,823 1281,825C1288,827 1295,826 1302,828C1314,832 1325,839 1338,843C1376,853 1411,862 1449,872C1463,876 1477,878 1491,878C1516.6,877.1 1542.1,876.6 1567.6,876.5C1627.8,876.4 1687.9,879.2 1749,887C1791.1,892.9 1829.4,885.2 1868.8,875.5C1837.7,863 1806.7,850 1775.8,836.9C1761.8,841.2 1747.4,845.4 1732.1,849C1724,850 1718,854 1710,856Z" style="fill:rgb(140,127,156);fill-rule:nonzero;"/>
        <path d="M1838,817C1816.5,823.6 1796.5,830.5 1775.7,836.9C1806.7,850 1837.6,863 1868.7,875.5C1882.6,872.1 1896.6,868.4 1910.9,865C1958.9,854 2001.9,867 2048.9,878C2073.9,884 2097.9,876 2120.9,865C2145.9,853 2172.9,851 2201.9,847C2225.7,843.2 2248.8,839.9 2271.9,836.6L2271.9,800C2152.5,827.7 2034.8,873.3 1918.9,814.9C1893,802 1865,808 1838,817Z" style="fill:rgb(118,110,155);fill-rule:nonzero;"/>
    </g>
    <g>
        <path d="M1338,843C1325,839 1314,832 1302,828C1295,826 1288,827 1281,825C1276,823 1271,820 1266,820C1255,819 1244,818 1233,817C1169,811 1108,829 1047,848C1034,852 1021,854 1008,857C983,864 957,870 934,857C876,823 819,785 750,797C740.1,798.6 730.5,800.4 720.9,802.3C678,810.7 637.3,821.4 594,832C544,844 500,861 453,879C352,920 256,968 147,983C97.7,989.4 48.5,990.5 0,984.9L0,1075.9C15,1078.3 29.9,1080.6 45,1081C112,1084 174,1102 234,1132C319,1174 399,1216 492,1240C547.3,1254.9 601.9,1255.4 657.5,1259.1C709.6,1233.8 760,1205.5 813,1178C830,1169 846,1158 864,1149C988,1089 1108,1030 1235,975C1301,946 1363,914 1437,901C1482.5,892.5 1523.5,885.7 1567.6,876.5C1542.1,876.5 1516.6,877.1 1491,878C1477,878 1463,876 1449,872C1411,862 1376,853 1338,843Z" style="fill:rgb(38,45,71);fill-rule:nonzero;"/>
        <path d="M1338,843C1325,839 1314,832 1302,828C1295,826 1288,827 1281,825C1276,823 1271,820 1266,820C1255,819 1244,818 1233,817C1169,811 1108,829 1047,848C1034,852 1021,854 1008,857C983,864 957,870 934,857C876,823 819,785 750,797C740.1,798.6 730.5,800.4 720.9,802.3C678,810.7 637.3,821.4 594,832C544,844 500,861 453,879C352,920 256,968 147,983C97.7,989.4 48.5,990.5 0,984.9L0,994C48.5,999.6 97.7,998.5 147,992.1C256,977.1 352,929.1 453,888.1C500,870.1 544,853.1 594,841.1C637.3,830.5 678,819.8 720.9,811.4C730.5,809.5 740.2,807.7 750,806.1C819,794.1 876,832.1 934,866.1C957,879.1 983,873.1 1008,866.1C1021,863.1 1034,861.1 1047,857.1C1108,838.1 1169,820.1 1233,826.1C1244,827.1 1255,828.1 1266,829.1C1271,829.1 1276,832.1 1281,834.1C1288,836.1 1295,835.1 1302,837.1C1314,841.1 1325,848.1 1338,852.1C1376,862.1 1411,871.1 1449,881.1C1463,885.1 1477,887.1 1491,887.1C1499.9,886.8 1508.9,886.5 1517.8,886.3C1534.2,883.3 1550.7,880.1 1567.7,876.6C1542.2,876.6 1516.7,877.2 1491.1,878.1C1477.1,878.1 1463.1,876.1 1449.1,872.1C1411,862 1376,853 1338,843Z" style="fill:rgb(43,50,79);fill-rule:nonzero;"/>
        <g>
            <path d="M2049,878C2002,867 1959,854 1911,865C1896.7,868.4 1882.6,872.1 1868.8,875.5C1829.5,885.2 1791.2,892.9 1749,887C1687.9,879.3 1627.8,876.5 1567.6,876.5C1523.4,885.7 1482.4,892.4 1437,901C1363,914 1301,946 1235,975C1108,1030 988,1089 864,1149C846,1158 830,1169 813,1178C760,1205.5 709.6,1233.8 657.5,1259.1C669.3,1259.9 681.1,1260.8 693,1262C712,1264 731,1260 750,1265C817,1282 877,1310 945,1320C949.7,1323.1 954.5,1326.1 959.3,1329.1C1030.1,1311.9 1101.9,1298.2 1173,1276C1212,1265 1250,1259 1290,1255C1322,1251 1354,1251 1386,1247C1442,1240 1492,1220 1548,1212C1579,1208 1607,1205 1638,1200C1701,1189 1755,1165 1818,1153C1870,1144 1919,1144 1971,1136C2021,1128 2067,1117 2115,1102C2126,1098 2137,1098 2148,1095C2190.6,1083.4 2231.1,1068.1 2272,1055L2272,836.6C2248.9,839.9 2225.8,843.1 2202,847C2173,851 2146,853 2121,865C2098,876 2074,884 2049,878Z" style="fill:rgb(47,56,89);fill-rule:nonzero;"/>
            <path d="M2049,878C2002,867 1959,854 1911,865C1896.7,868.4 1882.6,872.1 1868.8,875.5C1829.5,885.2 1791.2,892.9 1749,887C1687.9,879.3 1627.8,876.5 1567.6,876.5C1523.4,885.7 1482.4,892.4 1437,901C1363,914 1301,946 1235,975C1108,1030 988,1089 864,1149C846,1158 830,1169 813,1178C760,1205.5 709.6,1233.8 657.5,1259.1C664.2,1259.5 670.9,1260 677.6,1260.6C722.6,1238 766.8,1213.4 813,1189.4C830,1180.4 846,1169.4 864,1160.4C988,1100.4 1108,1041.4 1235,986.4C1301,957.4 1363,925.4 1437,912.4C1482.5,903.9 1523.5,897.1 1567.6,887.9C1627.8,887.8 1687.9,890.6 1749,898.4C1791.1,904.3 1829.4,896.6 1868.8,886.9C1882.7,883.5 1896.7,879.8 1911,876.4C1959,865.4 2002,878.4 2049,889.4C2074,895.4 2098,887.4 2121,876.4C2146,864.4 2173,862.4 2202,858.4C2225.8,854.6 2248.9,851.3 2272,848L2272,836.6C2248.9,839.9 2225.8,843.1 2202,847C2173,851 2146,853 2121,865C2098,876 2074,884 2049,878Z" style="fill:rgb(52,62,97);fill-rule:nonzero;"/>
        </g>
    </g>
</svg>
