<svg version="1.0" xmlns="http://www.w3.org/2000/svg" viewBox="0 0 4520 4520"><path d="M2038 4016c-83-34-134-67-218-138-74-63-76-64-120-57-132 21-304 1-385-44-31-18-41-30-47-62-5-22-6-51-3-64 5-21 3-23-17-17-13 4-43 10-68 13-43 5-48 3-83-33-49-50-112-177-137-278-11-44-20-87-20-97s-20-27-52-44c-131-67-276-209-293-286-6-24-1-41 23-79l30-48-38-11c-71-21-83-38-88-128-5-94 20-206 69-314l32-69-31-68c-63-136-92-327-59-392 8-15 32-33 63-45l50-20-28-45c-15-24-28-51-28-59 0-67 131-209 263-286 50-29 86-57 87-66 1-45 45-183 80-254 42-84 70-122 113-149 25-17 59-14 123 11 12 4 14 0 9-18-3-13-2-42 3-64 6-32 16-44 47-62 71-40 174-57 314-50l126 5 75-64c87-74 182-127 268-149 71-18 85-14 131 42l31 38 31-38c46-56 60-60 131-42 86 22 181 75 268 149l75 64 126-5c140-7 243 10 314 50 43 24 60 66 49 121-5 23-3 28 9 23 65-25 99-28 124-11 43 27 71 65 113 149 36 73 80 212 80 256 0 10 20 27 53 44 130 67 275 209 292 286 6 26 1 40-25 76-17 25-30 46-28 47s24 10 50 20c68 25 73 35 73 145 0 102-22 193-71 295-13 27-24 55-24 62 0 6 13 40 30 75 59 128 84 282 60 370-10 36-34 55-97 73l-22 7 30 46c16 26 29 54 29 62 0 63-141 212-269 287l-78 45-17 79c-29 137-92 266-159 329-22 20-33 23-74 19-26-3-55-9-64-12-13-6-16 1-16 38-2 67-10 83-56 105-93 45-259 63-387 42-44-7-46-6-101 44-114 104-252 175-339 175-34 0-44-6-76-44l-37-44-31 41c-29 38-36 42-81 44-34 2-68-4-107-21z" fill="#d15361" /><path d="M1455 3730c-86-18-92-23-97-86-4-47-10-62-33-82-29-25-55-26-135-7-22 6-30-1-63-51-70-106-115-307-103-454 9-106 38-214 80-299 56-110 46-150-47-197-243-122-437-402-441-634l-1-75 40-12c83-27 107-95 59-164-34-49-28-66 50-143 158-154 432-246 649-217 115 16 135 14 161-12 17-17 27-44 36-98 17-104 67-232 124-317 91-137 239-263 353-299l52-16 44 46c60 65 94 65 154 0l43-46 43 12c128 38 294 183 384 336 46 78 84 181 99 269 16 90 33 123 69 132 14 3 69 1 124-5 237-28 496 57 657 215 78 77 84 94 50 143-48 69-24 137 59 164l40 12-1 75c-4 232-198 512-441 634-95 48-102 82-43 208 67 144 91 291 71 442-16 118-53 231-98 300-33 50-41 57-63 51-80-19-106-18-134 7-23 19-29 35-35 82-6 58-7 59-46 73-22 8-85 17-140 20-224 12-433-67-618-235-89-82-105-82-194 0-130 118-268 190-425 222-81 17-215 19-283 6zm865-755l55-55-58-58-57-57-57 57-58 58 55 55c30 30 57 55 60 55s30-25 60-55zm-380-490l-60-60-57 58-58 57 60 60 59 60 58-57 58-58-60-60zm377 123c29-29 53-57 53-63s-25-35-55-65l-55-54-55 54c-30 30-55 59-55 64 0 10 100 116 109 116 3 0 29-23 58-52zm380-125l-57-58-60 60-60 59 57 58 58 58 60-60 60-60-58-57zm-754-261l57-58-58-57-58-57-59 60-59 60 54 55c30 30 57 55 60 55s31-26 63-58zm380 0l57-58-60-59-60-59-60 59-60 59 57 58c32 32 60 58 63 58s31-26 63-58zm377 3l54-55-59-60-59-60-58 57-58 57 57 58c32 32 60 58 63 58s30-25 60-55zm-750-380l55-55-60-60-60-60-60 60-59 60 54 55c30 30 59 55 65 55s35-25 65-55zm370 0l55-55-58-58-57-57-57 57-58 58 55 55c30 30 57 55 60 55s30-25 60-55zm380 0l55-55-60-60-60-60-60 60-59 60 54 55c30 30 59 55 65 55s35-25 65-55z" fill="#fdb3ba" /><g fill="#fffefe"><path d="M2070 3931c-54-21-110-56-167-104l-43-35 68-27c90-35 193-101 270-170l62-57 60 55c71 67 182 136 272 172l67 27-32 28c-55 48-153 106-201 120l-46 13-43-47c-60-63-94-64-153-1-23 25-48 45-55 45-8-1-34-9-59-19z" /><path d="M1455 3730c-86-18-92-23-97-86-4-47-10-62-33-82-29-25-55-26-135-7-22 6-30-1-63-51-70-106-115-307-103-454 9-106 38-214 80-299 56-110 46-150-47-197-243-122-437-402-441-634l-1-75 40-12c83-27 107-95 59-164-34-49-28-66 50-143 158-154 432-246 649-217 115 16 135 14 161-12 17-17 27-44 36-98 17-104 67-232 124-317 91-137 239-263 353-299l52-16 44 46c60 65 94 65 154 0l43-46 43 12c128 38 294 183 384 336 46 78 84 181 99 269 16 90 33 123 69 132 14 3 69 1 124-5 237-28 496 57 657 215 78 77 84 94 50 143-48 69-24 137 59 164l40 12-1 75c-4 232-198 512-441 634-95 48-102 82-43 208 67 144 91 291 71 442-16 118-53 231-98 300-33 50-41 57-63 51-80-19-106-18-134 7-23 19-29 35-35 82-6 58-7 59-46 73-22 8-85 17-140 20-224 12-433-67-618-235-89-82-105-82-194 0-130 118-268 190-425 222-81 17-215 19-283 6zm300-155c84-21 189-75 260-132 72-59 90-89 71-118-23-35-52-30-103 18-27 25-70 59-98 76-57 36-190 81-240 81-32 0-34-2-30-27 10-54 35-278 35-310 0-22-6-36-21-43-17-10-46 1-182 64-95 43-166 71-171 66s-11-56-14-112c-5-114 9-191 54-287 27-61 24-88-12-97s-59 17-93 106c-52 134-59 297-20 443 23 86 36 86 216 3 76-35 139-63 140-62 2 1-6 72-17 157-24 185-24 164-3 185 14 14 29 16 93 11 41-4 102-13 135-22zm1239 9c19-19 19-14-3-194-10-80-18-146-16-148 1-1 64 27 139 63 140 66 175 75 195 52 21-27 43-153 44-252 0-106-17-188-57-278-28-64-48-81-81-73-34 9-41 44-17 87 44 76 57 138 57 271 0 72-4 131-10 136-6 6-68-17-169-64-164-77-191-82-202-40-5 21 18 256 32 329 5 25 3 27-30 27-51 0-183-44-241-81-27-17-71-51-97-75s-56-44-67-44c-24 0-52 36-44 59 17 48 161 154 260 191 122 46 278 63 307 34zm-674-609l55-55-58-58-57-57-57 57-58 58 55 55c30 30 57 55 60 55s30-25 60-55zm-380-490l-60-60-57 58-58 57 60 60 59 60 58-57 58-58-60-60zm377 123c29-29 53-57 53-63s-25-35-55-65l-55-54-55 54c-30 30-55 59-55 64 0 10 100 116 109 116 3 0 29-23 58-52zm380-125l-57-58-60 60-60 59 57 58 58 58 60-60 60-60-58-57zm-1497-63c18-34 2-58-63-92-74-39-169-132-216-211-52-89-53-87 79-114 63-12 139-28 167-34 55-11 83-30 83-55 0-8-54-72-120-143s-120-132-120-135c0-13 124-67 187-82 50-12 95-15 170-11 84 5 106 3 118-9 31-31 7-70-48-78-159-25-323 6-460 86-117 68-117 78 16 220 56 60 103 113 105 117 1 5-62 21-140 36-79 15-153 32-165 36-33 12-30 61 11 144 66 137 164 246 283 312 67 38 98 41 113 13zm2231-11c120-64 249-213 298-344 28-73 27-103-1-114-13-4-87-21-166-36-78-15-141-31-140-36 2-4 48-56 104-116 55-59 103-115 106-124 22-58-192-169-360-187-74-9-189-2-224 13-23 9-32 40-18 65 10 19 17 20 104 14 117-8 208 7 303 51 40 19 73 37 73 40 0 4-54 65-120 136s-120 134-120 142c0 35 28 46 195 79 194 39 188 34 134 125-47 79-142 172-216 211-65 34-81 58-63 92 15 28 43 25 111-11zm-1488-187l57-58-58-57-58-57-59 60-59 60 54 55c30 30 57 55 60 55s31-26 63-58zm380 0l57-58-60-59-60-59-60 59-60 59 57 58c32 32 60 58 63 58s31-26 63-58zm377 3l54-55-59-60-59-60-58 57-58 57 57 58c32 32 60 58 63 58s30-25 60-55zm-750-380l55-55-60-60-60-60-60 60-59 60 54 55c30 30 59 55 65 55s35-25 65-55zm370 0l55-55-58-58-57-57-57 57-58 58 55 55c30 30 57 55 60 55s30-25 60-55zm380 0l55-55-60-60-60-60-60 60-59 60 54 55c30 30 59 55 65 55s35-25 65-55zm-873-557c5-7 15-42 22-78s28-96 46-135c33-68 139-199 156-193 5 2 47 71 93 153 80 146 84 150 115 150 32 0 35-5 116-150 46-82 88-151 93-153 18-6 124 124 157 193 19 39 40 101 48 139 15 76 29 93 70 82 24-6 27-11 27-50 0-129-103-323-230-434-61-53-86-65-107-53-10 5-52 71-93 145-41 75-77 136-81 136-3 0-40-63-82-139-43-76-84-142-93-145-8-3-28 1-44 9-36 19-142 125-181 181-81 118-134 305-97 342 16 16 53 15 65 0z" /><path d="M863 3075c-62-41-159-136-168-165-5-15 1-33 19-59 48-69 24-137-59-164l-40-12 1-75c1-52 10-99 28-155 15-44 29-82 31-84s39 33 81 78c81 86 168 154 245 191l46 23-37 81c-46 100-69 186-77 294-3 45-9 82-12 81-3 0-29-15-58-34zM3590 3062c0-100-38-247-91-353l-28-56 47-22c78-38 165-105 246-192 42-45 79-80 81-78s16 40 31 84c18 56 27 103 28 155l1 75-40 12c-83 27-107 95-59 164 33 47 28 64-40 133-44 46-153 126-171 126-3 0-5-22-5-48zM1040 1242c0-34 56-178 87-226 33-50 41-57 63-51 80 19 106 18 134-7 23-19 29-35 35-82 6-58 7-59 46-74 39-14 275-30 275-19 0 4-18 35-40 69-50 79-93 189-115 293-9 44-17 80-18 81s-22-2-47-6c-96-19-240-9-392 26-17 4-28 2-28-4zM3395 1233c-67-19-257-28-325-15-30 6-56 9-57 8s-9-37-18-81c-21-99-61-203-114-290-23-37-41-69-41-72 0-12 237 5 275 19 39 15 40 16 46 74 6 47 12 63 35 82 28 25 54 26 134 7 22-6 30 1 63 51 31 48 87 192 87 225 0 12-23 10-85-8z" /></g></svg>