<svg viewBox="0 0 160 160" xmlns="http://www.w3.org/2000/svg" fill-rule="evenodd" clip-rule="evenodd" stroke-linejoin="round" stroke-miterlimit="2"><path d="M64.8 153.2c-2-1.5-4.4-4.2-5.2-6L58 144l-7.2.5c-4 .3-7.9.2-8.6-.3-.8-.5-1.7-2.5-2.1-4.3-.8-4.1-5.2-6.9-7.6-4.9-.8.7-2.1 1-2.9.7-1.9-.8-5-11-4.2-14.2.6-2.3.4-2.6-1.3-2-1.1.3-2.2.1-2.6-.5-.3-.5-1.3-1-2-1-.8 0-2.4-.8-3.6-1.7-6.8-5.7-6.4-5-5.1-9.9 1.6-6 1.6-6.3-1.3-7.4-4.9-1.9-5-8.2-.3-16.9 1.3-2.3 1.6-3.7.9-4.5-1.4-1.7-4.2-9.4-4.7-12.7-.2-1.9.6-3.5 3.1-5.9 3.9-3.8 4.2-4.6 1.9-7.1-1.4-1.5-1.4-2.1-.2-4.6.9-1.9 2.1-2.8 3.6-2.7 1.2 0 2-.2 1.7-.4-1.1-1.1 2.9-4.2 6.1-4.8 3.2-.6 3.4-.9 3.4-4.5 0-4.3 2.1-10.2 4-11.4.7-.4 2.3-.2 3.6.5 2 1.1 2.7 1.1 4.3-.4 1.1-1 2.2-2.8 2.5-4 .3-1.2 1.7-2.8 3.1-3.6 1.4-.7 2.5-1.7 2.5-2.1 0-.3 2.9-.4 6.4-.2 6.3.5 6.4.5 8.2-2.6 1-1.7 2.7-3.1 3.7-3.1 1.3 0 1.7-.5 1.4-1.4-.4-1 .7-2.3 3-3.7 3-1.9 3.8-2 4.7-.8.6.8 2.5 2.1 4.1 3 2.8 1.4 3.2 1.4 5.5-.2 5.7-3.9 7.4-3.5 14.5 3.7l6.7 6.6L108 14c5.6-1.3 9-.6 9 1.8 0 .9 1.1 3 2.4 4.7 2.1 2.6 2.9 2.9 6.8 2.6 4-.2 4.6.1 5.3 2.1.4 1.3.8 2.5 1 2.8.9 2.2 1.4 4 2 7.2.5 3 1.1 3.8 3.5 4.3 1.7.4 3.3 1.2 3.7 1.9.5.8 2.3 2.1 4.1 3 3.5 1.8 4.1 4.5 2 9.1-1.1 2.4-.9 2.9 2.5 6 3.3 3 3.5 3.6 2.7 6.4-.9 3.2-2.6 6.8-5.1 11-1.1 1.8-1.1 2.5-.2 2.8.7.2 1.5 2 1.9 3.9.3 1.9 1 3.4 1.5 3.4s1.2 1.4 1.7 3.2c1 4-.3 7.1-3.9 9.2-2.5 1.4-2.6 1.9-1.9 5.3.5 2.1.7 3.9.5 4.2-.3.2 0 1 .5 1.7.8.9-.1 1.8-3.5 3.4-2.6 1.3-4.9 2.9-5.2 3.7-.3.8-1.6 1.8-2.8 2.3-1.8.7-2.4 1.9-3 6.2-1 7.7-2.8 10.1-7 9.4-1.8-.4-3.9-.4-4.8 0-1.3.5-2.9 3.9-3.1 6.9-.1.6-.5 1-1.1 1-.5.1-2 .5-3.3.9-1.3.4-2.8.4-3.5-.1-.7-.5-2.8-.8-4.8-.7-2.9.1-4.5 1.1-9.5 6.2-6.8 7-9.1 7.6-14.4 3.7-4.1-3.1-4.3-3.1-5.5-.2-1.5 3.4-7 3.4-11.7-.1z" fill="#fe0d0d" fill-rule="nonzero"/><g fill="#fe6a69" fill-rule="nonzero"><path d="M44.5 142.2c-.5-.4-1.7-2.7-2.5-5.2l-1.5-4.5-4.7.3c-4.2.3-4.8 0-6.8-2.8-1.6-2.3-2.1-4.1-1.8-7 .2-2.2-.1-4.2-.7-4.4-.7-.3-.7-.7 0-1.3.6-.4 1.1-2.2 1.2-4 .4-4.2 4-13.8 5.8-15.3 2.9-2.4 1.8-5.6-2.7-7.5-2.4-1.1-5.9-3.2-7.9-4.7S18.7 83 18.1 83c-.6 0-1.1-.4-1.1-.9 0-.6-1.1-2.2-2.5-3.7s-3.7-5.2-5.1-8.2l-2.6-5.5 3.6-3.4c3.7-3.6 4.5-6.7 2.6-10.4-1.1-2 0-3.4 6.9-9.1 1.2-.9 5.7-1.4 16.1-1.7 8-.1 15-.7 15.7-1.2 1.1-1 2.8-9.5 2.6-13.4 0-1.1.2-2.2.6-2.5 1-.8 7.1-11.1 7.1-12.1 0-.5.6-.9 1.3-.9.6 0 2.5-1.4 4.1-3 1.6-1.7 3.3-3 3.8-3s2.1 1.4 3.5 3c3 3.6 5.1 3.8 8.9.5 1.8-1.5 3.7-2.3 5.1-2 2.9.5 10.1 7.8 10.9 11 .3 1.4 1 2.5 1.6 2.5.5 0 .7.4.4.9-.3.5.1 1.2 1 1.5 1.2.4 1.5 1.5 1.2 3.6-.3 1.7-.1 3 .4 3 .4 0 1 1.1 1.4 2.5.3 1.4 1.2 2.5 2 2.5 1.1 0 1.1-.7-.1-4.1-.8-2.2-1.4-4.3-1.4-4.7.1-.4 0-.9-.1-1.2-.1-.3-.3-1.2-.5-2a33 33 0 00-1.1-3.4c-.5-1.4-.4-1.7.4-1.2.7.4 1.2.2 1.2-.3 0-1.4 5.5-1.4 8-.1 1 .5 2.6 3 3.5 5.5 1.9 4.8 2.8 5.1 8.1 3.6 2.9-.8 3.3-.6 4.4 1.8.7 1.4 1.6 4.3 2 6.5l.8 3.8-6-.4c-4.6-.3-5.8-.1-5.4.9.4 1 0 1-1.7-.1-1.5-1-3.3-1.2-5.7-.7-4.8 1-2.5 2.1 5.3 2.6 10.7.6 19 2.5 23 5.2 4 2.8 4.5 4.7 2.5 10.3-1 3.1-.9 3.5 1.3 4.9 1.3.9 3.2 2.4 4.2 3.4 1.6 1.6 1.7 2.1.4 3.5-.7.9-2 3.2-2.7 5-1.7 4.4-13.7 16.2-19.3 19-5.2 2.6-5.3 2.9-3.4 5.7.8 1.1 2.2 4.1 3.2 6.8 1 2.6 2.2 4.7 2.8 4.7.5 0 .7.9.4 2-.3 1.1-.1 2 .4 2 1.3 0 .2 11.7-1.5 16.7-1.2 3.7-1.5 3.8-6.6 4.3-5.2.5-5.4.6-6.7 4.7-1.6 4.8-2.6 5.2-10.6 4-7.2-1.1-15.7-5.5-21.7-11.3-2.5-2.4-5-4.4-5.5-4.4-.6 0-3.7 2.6-7 5.6-6.8 6.3-11.7 8.9-19.4 10.4-6.3 1.2-7.3 1.2-8.6.2zm9.9-3c2.9-.3.9-1.6-2.6-1.8-2-.1-3.8-1-4.9-2.5-2.3-3.1-3.4-1.9-1.6 1.8 1.5 2.9 2.1 3 9.1 2.5zm59-.1c.4-.5.3-1.7 0-2.6-.6-1.5-.9-1.4-2 .6-.7 1.3-1.3 1.8-1.4 1.2 0-.8-1.3-1.3-2.9-1.3-1.6 0-3.4-.7-4.1-1.5-.6-.8-1.5-1.4-1.8-1.3-1.9.4-6.4-2.6-11.3-7.6-5.6-5.5-8.2-6.5-5.2-2 .9 1.4 1.7 2.3 1.9 2.1.2-.2 2.4 1.5 4.9 3.9 2.5 2.3 5.8 4.5 7.3 4.9 1.5.4 3.4 1.2 4.2 2 2.5 2.2 9.4 3.3 10.4 1.6zm-51.6-3.7c2.7-1.3 5.1-3.4 3.9-3.4-1.9 0-9.6 3.4-9.1 4.1.7 1.2 1.6 1.1 5.2-.7zm55.3-4.8c2.4-2 3.4-2.3 6.4-1.6 1.9.4 3.5.7 3.6.6 0 0 .2-2 .4-4.3.2-2.4.6-6.5.9-9.2.6-5.3-.6-7.4-2.3-4.2-.8 1.4-.8 2 .2 2.4.9.3.9.7-.2 2-.9 1.1-1 1.7-.2 1.7.6 0 1.1.7 1.1 1.6 0 .9-.5 1.2-1.2.8-1-.5-1-.4-.2.5.6.7.9 2.3.6 3.7-.4 2.3-.9 2.5-4.1 2.1-3-.3-4.2.2-7.1 3-4 3.8-2.3 4.5 2.1.9zm-72.6-1.3c-.8-.8-1.9-1.1-2.5-.8-.5.3-1 .1-1-.5 0-.7-.8-.9-2.1-.5-1.5.5-2.5.1-3.5-1.4-2.1-2.9-3.5-2.6-2.1.4 1.2 2.4 2.4 3 5.9 2.7.9-.1 2.1.5 2.8 1.3.6.7 1.8 1.1 2.5.8 1.2-.4 1.2-.7 0-2zm27.8-2.2c2-2.2 3.7-4.4 3.7-5 0-1.8-2.1-1.3-2.7.7-.2.9-2 2.8-3.8 4.2-3.6 2.6-4.4 4-2.2 4 .7 0 3-1.8 5-3.9zm-39.1-11.4c.2-3.7.6-6.7 1.1-6.7.4 0 .7-.9.7-2s.9-2.9 2-4 2.1-2.3 2.1-2.7c.2-1.2 1-3.6 1.9-5.9.9-2.4-.9-6.3-2.7-5.7-.9.3-.8 1.1.4 2.9 1.2 1.9 1.3 2.8.4 3.7-.6.6-1.1 1.9-1.1 2.9s-.7 2.1-1.5 2.4c-1.7.7-5.7 9.2-4.9 10.5.3.5 0 .9-.7.9-.8 0-.8.4.1 1.5.8.9 1 2.9.7 4.9-.5 2.9 0 5.2.9 4.3.2-.1.4-3.3.6-7zM85 114c0-.5-1.8-1-4.1-1-2.7 0-3.8-.4-3.3-1.1.4-.7 2.2-.9 4.6-.6 3.9.5 3.9.5 3.3-2.4-.5-2.2-.3-2.9.9-2.9.9 0 1.6-.5 1.6-1.1 0-.7-1-.9-2.7-.4-2.3.5-2.6.4-1.5-.6 1.7-1.8 1.5-3.2-.3-2.5-.8.3-1.9-.2-2.4-1.2-.8-1.4-1.2-1.5-2.2-.4-1.1 1-1.1 1.2 0 1.2.7 0 .9.5.6 1-.3.6-1.6 1-2.8 1-2 .1-2.1.1-.4 1.1 1 .6 2.5.8 3.3.5.8-.3 1.4-.1 1.4.5 0 .7-1.4 1-3.4.7-2.6-.3-3.2 0-2.8 1 .3 1 1.5 1.2 3.8.9 1.9-.3 3.4-.2 3.4.4 0 .5-1.1.9-2.4.9-1.3 0-3 .7-3.7 1.6-1.1 1.4-1 1.8.6 3 2.2 1.6 8.5 1.9 8.5.4zm41.6-7.3c-.1-.7-1.2-3-2.4-5.1-1.2-2-2-4.1-1.7-4.5.2-.5-.4-1.6-1.5-2.6s-2-1.3-2-.7c0 .6.5 1.4 1.1 1.7.6.4.8 1.3.5 2.1-.3.8-.1 1.4.4 1.4.6 0 1 .7 1 1.5 0 .9.7 2.7 1.6 4 .9 1.4 1.3 3.2 1 4.1-.5 1.4-.4 1.5.8.5.8-.7 1.3-1.7 1.2-2.4zM67 103c0-2.5-2.9-4.2-4.6-2.6-1.6 1.5.1 4.6 2.6 4.6 1.3 0 2-.7 2-2zm-13.2-7.8c-.1-.7.5-2.4 2.3-7 .9-2.4 4.6-2.7 4.2-.4-.4 1.6 1.8 1.5 4.1-.3 2.3-1.7 1.1-3.8-1.9-3.1-1.5.4-2.8-.1-4-1.4-2.3-2.5-3.1-2.5-3.8.1-.4 1.5-1.1 2-2.1 1.6-1-.4-1.6-.1-1.6.8 0 .8.6 1.5 1.4 1.5 1.5 0 1.1 4.6-.5 5.6-1.6.9-1 4.4.6 3.8.8-.3 1.4-.9 1.3-1.2zm12.2-.4c0-.6-.9-.8-2.1-.5-2.5.7-5.1-.2-4.4-1.3.3-.5.1-1.1-.5-1.5-1.3-.8-1.3 2.8 0 4.1 1.3 1.3 7 .6 7-.8zm18.5.2c.3-.5-.2-1-1.2-1s-2.6-.6-3.5-1.3c-1.4-1.1-1.5-1.7-.5-3.7.7-1.3 1.9-2.6 2.7-3 8-3.6 9.7-5.4 6.4-6.7-1.1-.4-2.2 0-3 1.2-1 1.4-3.1 2-7.4 2.3-3.9.3-5.9.8-5.7 1.6.2.6 1.8 1 3.5.9l3.1-.3-1.7 2.9c-1.4 2.5-1.4 3.1-.2 4.6 2.3 2.8 6.5 4.2 7.5 2.5zm37.4-3.7c-.4-2.2.3-3.3 1.9-3.3 1 0 2.6-.6 3.7-1.4 1.1-.7 2.9-1.6 4-1.8 1.7-.4 1.8-.6.3-1.2-1.8-.8-9.7 2.4-11.7 4.8-.7.8-1 2-.6 2.6.7 1.2 2.6 1.4 2.4.3zm-84.1-5.1c.3-.9-.3-1.3-1.4-1.1-1.1.2-3.6-.3-5.7-1-4.7-1.6-6.4-.6-1.9 1.1 1.8.7 3.2 1.5 3.2 1.9 0 1.2 5.3.4 5.8-.9zm99.6-6.4c-.3-.5.1-.8.9-.8 1.8 0 3.9-2.4 7.1-8.3 2.4-4.2 2.5-4.9 1.2-6.2-.8-.8-1.9-1.5-2.5-1.5-1.1 0-3.3-3.6-3.7-5.9-.2-.8.4-2.4 1.2-3.5 1.8-2.6 1.8-2.6-.9-5.6-3-3.4-12.4-6.8-9.7-3.5.7.8 1.9 1.5 2.6 1.5.8 0 1.4.5 1.4 1.1 0 .5.4.8 1 .4.5-.3 1.8.3 2.9 1.4 1.7 1.7 1.7 2.2.6 3.9-2.3 3.1-1.4 6.5 2.9 11 2.2 2.3 3.5 4.2 2.8 4.2-.7 0-1.2.5-1.2 1 0 2.2-4.4 7.6-8.1 9.9-4.1 2.6-4.5 4.7-.5 2.8 1.3-.7 2.2-1.5 2-1.9zM26 81c0-.5-.5-1-1-1-1.4 0-9-8.2-8.4-9.1.2-.4-.3-1.2-1.1-1.9-2.1-1.7-2-2.1 1.9-6.3 3.3-3.6 5.6-8.4 3.3-7-.6.4-.8 0-.4-1.1.4-1 .1-1.9-.9-2.3-.8-.3-1.3-1.2-1-1.9.3-.8.1-1.4-.3-1.4-1.8 0-1.8 2.6.1 5.2l1.9 2.8-9 9.6 2.9 4.2c3.8 5.7 7.2 9.2 9 9.2 1.3 0 1.3.1 0 1-1.2.8-1.1 1 .8 1 1.2 0 2.2-.4 2.2-1zm37.1-5.9c3.1-3.9 2.3-6-.9-2.2-1.8 2.2-3.4 3.2-4.7 2.9-1.7-.3-2-1.2-2-6.7 0-3.6-.4-6.6-1-6.8-1.5-.5-1.1 12.3.5 14.1 1.8 2.2 5.9 1.6 8.1-1.3zm20.8-.7c-.7-.8-2.6-2.2-4.3-3.1l-3-1.6 2.5-1.9c1.3-1.1 3.3-2.7 4.4-3.4 1.7-1.3 1.8-1.6.5-2.4-1-.6-1.7-.5-2 .4-.3.7-2 2.6-3.8 4.1l-3.4 2.8 4.8 4.5c2.7 2.4 5 3.9 5.2 3.3.2-.7-.2-1.9-.9-2.7zm19.2 1.1c1.5-.4 3-.2 3.3.4 1.1 1.7 5.6 1.3 5.6-.4 0-.9-.9-1.5-2.4-1.5-2.1 0-2.4-.5-2.3-3.4.1-2.6.5-3.2 1.6-2.8 1 .4 1.3.1.8-1-.3-1 0-1.9.9-2.2 2.1-.8.9-2.3-2.3-2.8-1.6-.3-3.7-.9-4.7-1.3-1.6-.7-1.8-.5-1.3.8s.1 1.7-1.8 1.7c-2.6 0-4.1 1.5-2.6 2.5.6.3.7 1.3.4 2.2-.5 1.2-.2 1.5 1 1 2.2-.8 2.2.1 0 2.6-1.7 1.9-1.7 2 .5 1.5 1.2-.4 2.2-.3 2.2.2 0 .4-1.1 1.1-2.5 1.4-1.4.4-2.5 1.1-2.5 1.7 0 .6.8.8 1.8.5.9-.3 2.9-.8 4.3-1.1zM59.8 56.8c.8-.8 1.5-.8 2.7.2 1 .8 1.5.9 1.5.2 0-.6-.9-1.6-2-2.2-2.6-1.4-2.5-3.4.3-4.9l2.2-1.2-2.2.5c-3.7.7-3.7-1.2-.1-2.8l3.3-1.4-2.7-.1c-1.6-.1-2.8-.5-2.8-1s-.7-1.2-1.6-1.5c-1.2-.4-1.4-.1-.9 1.4.6 1.7.2 2-3 2-2.4 0-3.4.4-2.9 1.1.3.6 1.9.9 3.5.5 2.2-.4 2.9-.2 2.9 1s-.7 1.5-3 1.2c-1.6-.3-3-.1-3 .4 0 .4 1.4.8 3 .8 3.6 0 4.2 2.7.8 3.2-1.3.2-2.4 1.1-2.6 2.1-.3 1.3.3 1.7 2.5 1.7 1.6 0 3.4-.5 4.1-1.2zm22-.4c.7-1.3 1.3-1.4 3-.5 2.8 1.5 3.7 1.4 2.2-.3-.6-.8-2.1-1.6-3.3-1.8-1.3-.2-2.3-1.1-2.5-2.4-.2-1.6.5-2.3 3-3.1l3.3-1.1-3.2-.1c-2.7-.1-3.2-.5-3-2.2.1-1.2-.2-2.3-.8-2.5-.6-.3-.9 1.7-.7 5.1.3 4.8.2 5.5-1.5 5.5-2.4 0-4.3 1.9-3.6 3.6.7 1.9 6 1.8 7.1-.2zm18.2 0c0 .4.9-.2 2-1.5l2-2.4 1.9 2.4c1 1.4 2.8 2.5 4 2.6 3 .2 2.6-1.2-.9-3-1.6-.8-3.4-2.4-3.9-3.4-.9-1.6-.6-2 2.2-2.7l3.2-.8-3.3-.3c-2.7-.4-3.2-.8-3-2.5.2-1.2-.2-2.3-.9-2.5-.8-.3-1.1.6-1 2.4.2 2.2-.3 2.9-2 3.1-1.3.2-2.3.8-2.3 1.4 0 .6.9.8 2 .5 2.8-.7 2.6 1.9-.5 4.7-1.3 1.3-2.2 2.6-1.8 3 .4.3 1 .1 1.5-.6.4-.7.8-.9.8-.4zM23.5 47c1.1-.5 1.4-.9.7-.9-.7-.1-1-.5-.7-1.1.3-.5.1-1-.5-1s-1.3.7-1.6 1.5c-.4.8-1 1.3-1.4 1-.5-.3-1.1-.1-1.5.5-.7 1.2 2.2 1.2 5 0zm7-1.8c1.1-.1 3-.4 4.3-.6 1.2-.2 2.2 0 2.2.3s1.5.5 3.2.4c4.8-.2 4.8-.2 4.8-1.3 0-.6-1.7-1-3.7-1-2.1 0-4.9 0-6.3-.1-4.4-.1-10 .5-10 1.1 0 1.2 2.4 3 2.9 2.2.3-.4 1.5-.8 2.6-1zm98-1.1c-1.1-1-9.5-2-9.5-1 0 1.4 1.6 1.9 5.9 1.9 2.7 0 4.1-.4 3.6-.9zM58.9 33.3c-.1-4.1-.2-4.4-.8-1.8-.7 2.8-.4 6.5.5 6.5.2 0 .3-2.1.3-4.7zm43.2-2.3c-.8-.6-3.6-9.1-3.3-10.2.1-.5-.2-.8-.8-.8-.5 0-1-.6-1-1.4 0-1.4-6.5-9.8-7.9-10.4-.4-.1-1.9.8-3.2 2.1-1.3 1.3-3.2 2.6-4.1 3-1 .3-1.8 1.1-1.8 1.6 0 1.5 5-.6 6.6-2.7 1.1-1.5 1.6-1.3 4.9 2.1 2 2 3.4 4.1 3.1 4.6-.3.5.1 1.2 1 1.5.8.3 1.2 1 .9 1.6-.3.5-.1 1 .5 1s.8.5.5 1c-.3.6-.1 1 .5 1 .7 0 .9.7.6 1.6-.3.8-.2 1.2.4.9.6-.3 1-.1 1 .4 0 .6-.4 1.1-1 1.1-.5 0-1 .5-1 1.1 0 .5.4.8.9.5.5-.3 1.1.1 1.5.9.3.9 0 1.5-1 1.5-1.2 0-1.2.2-.2 1.4 1.1 1.2 1.5 1.1 2.5-.7.6-1.2.8-2.4.4-2.7zm-41-6.5c.7-1.9 1.7-3.5 2.1-3.5.4 0 .8-.6.8-1.2 0-1.6 5.7-7.8 7.1-7.8.6 0 2.2.9 3.6 2 2.5 1.9 4.3 1.9 4.3-.1 0-.5-.6-.9-1.4-.9-.7 0-2.5-.9-3.9-2-2.3-1.8-5.7-1.9-5.7-.1 0 .4-1.3 2.1-3 3.7-1.6 1.6-3 3.3-3 3.7 0 .5-.9 2-2 3.4s-1.7 3-1.4 3.5c.4.6 0 1.4-.7 1.9-1.1.7-1.1.9.3.9 1 0 2.2-1.4 2.9-3.5z"/><path d="M55 56c0-.5.7-1 1.5-1s1.5.5 1.5 1c0 .6-.7 1-1.5 1s-1.5-.4-1.5-1zm21.2-.2c.7-1.9 3.8-2.2 3.8-.4 0 1-.9 1.6-2.1 1.6-1.2 0-1.9-.5-1.7-1.2zm59 60.9c0-4.6-1.1-9.8-2.5-11.6-.6-.7-1.7-2.7-2.3-4.5-.6-1.7-1.4-3.8-1.8-4.7-.5-1.2.1-1.9 2.2-2.8 1.6-.7 5.6-3.7 8.8-6.6 3.3-3 6.2-5.5 6.6-5.5.3 0 1.2 1.6 1.8 3.5.6 1.9 1.6 3.5 2.1 3.5s.9 1.7.9 3.8c0 3.1-.6 4-3.5 6-3.5 2.2-4.3 4-2.6 5.8.5.5 1.2 2.3 1.5 4 .7 2.9.3 3.4-4.6 7-2.9 2.1-5.6 4.3-5.9 4.8-.4.5-.7-.7-.7-2.7zm-113.1.7c-.6-1.1-1.1-1.5-1.1-1 0 .4-1.1.1-2.5-.8-1.5-1-2.5-1.2-2.5-.6s-.5.8-1 .5c-.6-.4-.8-1-.5-1.5.3-.5-.3-1.4-1.4-1.9-1.7-.9-1.8-1.5-.9-5.1.6-2.2 1.4-4 1.8-4 .5 0 .7-.8.5-1.7-.2-1-.4-2.1-.4-2.5-.1-.4-1.1-.5-2.2-.3-1.2.3-1.9.1-1.5-.2.3-.4-.3-1.6-1.3-2.7-1.9-2.1-1.9-2.4-.4-7.6.9-3 2.1-5.8 2.7-6.2.6-.4 2.8 1 5.1 3.2 2.2 2.1 6.3 5 9.2 6.5 6.1 3 6.8 3.8 4.8 5.5-2.1 1.7-5.7 11.9-5.7 16 .1 4.8-1.2 6.9-2.7 4.4zm5.3-85.3c.7-5.6 2-6.7 7.8-6.5 2.7.1 4.5-.3 4.5-1 0-.6.7-2.8 1.6-4.9 1.5-3.5 5.6-6.4 6.7-4.7.3.4 1.8.8 3.3.8 3.7-.1 4.3.7 2.5 3.4-1.4 2.2-2.6 6.7-3.4 13.2-.2 1.6-.7 3.2-1 3.5-.3.3-5.5.6-11.6.7l-11 .1.6-4.6z"/></g><g fill="#fea3a3" fill-rule="nonzero"><path d="M44.5 142.2c-.5-.4-1.7-2.7-2.5-5.2l-1.5-4.5-4.7.3c-4.2.3-4.8 0-6.8-2.8s-2.1-3.9-1.6-11.5c.6-8.7 3.5-18.4 6.1-20.5 2.9-2.4 1.8-5.6-2.7-7.5-2.4-1.1-5.9-3.2-7.9-4.7S18.7 83 18.1 83c-.6 0-1.1-.4-1.1-.9 0-.6-1.1-2.2-2.5-3.7s-3.7-5.2-5.1-8.2l-2.6-5.5 3.6-3.4c3.7-3.6 4.5-6.7 2.6-10.4-1.1-2 0-3.4 6.9-9.1 1.2-.9 5.7-1.4 16.1-1.7 8-.1 15-.7 15.6-1.2 1.1-.9 2-4.6 3-12.3.2-1.6 1.6-5 3-7.5 1.5-2.5 3.2-5.6 3.8-6.8C62 11 63 10 63.5 10c.6 0 2.3-1.4 3.9-3 1.6-1.7 3.3-3 3.8-3s2.1 1.4 3.5 3c3 3.6 6 3.8 9.2.5 3-3.2 5.8-2.7 10.4 1.7 3.4 3.3 9.4 14.4 8.9 16.2-.5 1.6 3.1 7.6 4.5 7.6 1.6 0 1.6-.3-.2-4.7-.8-2-1.3-3.8-1.1-4.1.3-.2-.1-1.9-.8-3.6-1.6-3.8-.3-5.6 3.9-5.6s6.2 1.6 8 6.5c1.9 4.8 2.8 5.1 8.1 3.6 2.9-.8 3.3-.6 4.4 1.8.7 1.4 1.6 4.3 2 6.4l.8 3.8-10.3-.6c-7-.4-10.6-.2-11 .5-1.2 1.9.3 2.4 7.4 2.7 10.6.3 19.2 2.2 23.4 5 4 2.8 4.5 4.7 2.5 10.3-1 3.1-.9 3.5 1.3 4.9 1.3.9 3.2 2.4 4.2 3.4 1.6 1.6 1.7 2.1.4 3.5-.7.9-2 3.2-2.7 5-1.7 4.4-13.7 16.2-19.3 19-2.6 1.3-4.7 2.5-4.7 2.7 0 .4 4.4 9.7 6.5 13.8.8 1.6 1.3 3.3.9 3.8-.3.5 0 .9.6.9 1.2 0 .4 10.2-1.4 16.5-1.2 3.9-1.3 4-6.6 4.5s-5.4.6-6.7 4.7c-1.6 4.8-2.6 5.2-10.6 4-7.2-1.1-15.7-5.5-21.7-11.3-2.5-2.4-5-4.4-5.5-4.4-.6 0-3.7 2.6-7 5.6-6.8 6.3-11.7 8.9-19.4 10.4-6.3 1.2-7.3 1.2-8.6.2zm11.3-4.1c.2-.6.9-1.1 1.6-1.1 1.7 0 7.4-2.9 8.1-4.1.8-1.2.5-1.2-4.6.6-2.4.9-4.6 2.1-5 2.7-1.3 2.1-7 1.3-9-1.3-2.4-3.2-3.5-1.9-1.5 1.9 1.3 2.6 2 2.9 5.8 2.7 2.3-.2 4.4-.8 4.6-1.4zm57.4-1.4c-.2-2.1 0-2.7.9-2.1.7.4.9.3.6-.3-.4-.6.4-2 1.7-3.2 1.9-1.8 3.4-2.2 6.8-2 3.8.3 4.3.1 4.4-1.9.1-1.2.3-2.3.4-2.4.1-.2.4-3.3.6-7 .3-4.5 0-7.1-.9-8-.7-.7-1.2-2-1.2-2.8.1-.8-1-3.2-2.2-5.3-1.3-2.1-2.1-4.1-1.9-4.6.3-.5-.3-1.6-1.4-2.6-1.1-1-2-1.3-2-.7 0 .6.5 1.4 1.1 1.7.6.4.8 1.3.5 2.1-.3.8-.1 1.4.4 1.4.6 0 1 .8 1 1.8s.5 2.3 1 2.8c.6.6 1.2 2.7 1.3 4.7.2 2.9.4 3.3 1.6 2.4 1.2-1 1.3-.9.5.8-1.1 2.4-1.1 5.5-.1 7.3.5.7.3 1.2-.4 1.2-.9 0-1 .3-.2 1.1.5.5.8 2.1.5 3.5-.4 2.3-.8 2.5-4.3 2.1-3.2-.4-4.2 0-6.5 2.4-1.5 1.6-2.9 3.9-3.1 5-.4 2.6-2.2 5.9-2.3 4.2 0-.8-1.3-1.3-3-1.3-1.6 0-3-.4-3-.9s-1.7-1.5-3.7-2.1c-2.2-.7-6.4-3.7-9.9-7.2-3.4-3.3-6.4-5.6-6.7-5C82.6 123.4 95 135 97.9 135c.6 0 1.1.5 1.1 1 0 .6.8 1 1.8 1s2.2.4 2.8.9c1.2 1.2 4.3 1.9 7.4 1.8 2.1-.2 2.5-.6 2.2-3zm-68.7-7.4c-.8-.8-1.9-1.1-2.5-.8-.5.3-1 .1-1-.5s-.8-.9-1.8-.6c-3.5 1.1-5.9-3.1-5.7-9.9.2-7 2-14.1 3.8-15.2 2.3-1.4 4.7-9.2 3.7-11.9-1-2.5-2.4-3.1-3.5-1.5-.3.5 0 1.3.6 1.6 1.5 1 .1 8.7-1.9 10.3-2.9 2.2-6.1 11.2-5.1 14.5.5 1.6.6 3.4.2 3.9-.3.6 0 2.8.8 5 1.3 4 4.5 6.3 7.2 5.2.8-.3 1.9.2 2.6 1 .7.8 1.9 1.2 2.6.9 1.2-.4 1.2-.7 0-2zm27.8-2.2c3.7-3.9 4.6-6.1 2.6-6.1-.6 0-1.3.9-1.6 2-.3 1.1-.8 2-1.2 2-.3.1-2.2 1.4-4.1 3-2.9 2.5-3.1 3-1.4 3 1.1 0 3.7-1.8 5.7-3.9zM85 114c0-.5-1.6-1-3.5-1s-3.5-.5-3.5-1.1c0-.8 1.4-1 4.1-.6 4 .5 4 .5 3.4-2.4-.5-2.2-.3-2.9.9-2.9.9 0 1.6-.5 1.6-1.1 0-.7-1-.9-2.7-.4-2.3.5-2.6.4-1.5-.6 1.7-1.8 1.5-3.2-.3-2.5-.8.3-1.9-.2-2.4-1.2-.8-1.4-1.2-1.5-2.2-.4-1.1 1-1.1 1.2 0 1.2.7 0 .9.5.6 1-.3.6-1.6 1-2.8 1-2 .1-2.1.1-.4 1.1 1 .6 2.5.8 3.3.5.8-.3 1.4-.1 1.4.5 0 .7-1.4 1-3.5.7-2.2-.2-3.4 0-3.2.6.2.6 2 1 4.1 1 2-.1 3.6.3 3.6.7 0 .5-1.1.9-2.4.9-3.3 0-5.3 2.5-3.6 4.5 1.4 1.7 9 2.1 9 .5zm-18.1-9.4c2.3-2.8-1.7-6.8-4.5-4.5-1.8 1.5-1.8 2.4.2 4.3 1.9 2 2.8 2 4.3.2zm-12-13.2c1.2-3.7 2.1-4.9 3.6-4.9 1.1 0 1.9.6 1.8 1.3-.4 1.6 1.7 1.5 4.1-.3 2.3-1.7 1.1-3.8-1.9-3.1-1.5.4-2.8-.1-4-1.4-2.3-2.5-3.1-2.5-3.8.1-.4 1.5-1.1 2-2.1 1.6-1-.4-1.6-.1-1.6.8 0 .8.6 1.5 1.4 1.5 1.5 0 1.1 4.6-.5 5.6-.5.3-.9 1.4-.9 2.5 0 3.6 2.3 1.4 3.9-3.7zm10.9 3.9c.2-.8-.6-1.3-2.4-1.3-1.5 0-3.3-.8-4-1.7-1.2-1.7-1.3-1.7-2 .1-.5 1.3-.1 2.3 1.2 3.3 2.2 1.6 6.6 1.4 7.2-.4zm19-.5c-.3-.7-1.5-1.5-2.9-1.8-1.3-.3-2.5-1.4-2.7-2.4-.5-2.2 2.5-5.6 4.8-5.6 2.5 0 6.5-3.4 5.6-4.8-1-1.7-3.4-1.5-4.4.5-.7 1.2-2.7 1.8-7.1 2.1-4 .3-6 .8-5.8 1.6.2.6 1.9 1 3.6.8 3.2-.2 3.2-.2 1.7 2-2.1 3-2 4.4.4 6.8 2.2 2.2 7.4 2.8 6.8.8zm37.1-3.5c-.4-2.2.3-3.3 1.9-3.3 1 0 2.6-.6 3.7-1.4 1.1-.7 2.9-1.6 4-1.8 1.7-.4 1.8-.6.3-1.2-1.8-.8-9.7 2.4-11.7 4.8-.7.8-1 2-.6 2.6.7 1.2 2.6 1.4 2.4.3zM38 86.5c0-.9-.9-1.5-2.4-1.5-1.2 0-3.7-.5-5.5-1.1-4.2-1.5-5.4-.2-1.3 1.3 1.8.7 3.2 1.5 3.2 1.8 0 .3 1.4.7 3 .8 2.1.2 3-.2 3-1.3zm99.4-6.7c-.3-.5.1-.8.9-.8 1.8 0 3.9-2.4 7.1-8.3 2.4-4.2 2.5-4.9 1.2-6.2-.8-.8-1.9-1.5-2.5-1.5-1.1 0-3.3-3.6-3.7-5.9-.2-.8.4-2.4 1.3-3.7 1.4-2.1 1.3-2.6-.5-5.1-1.2-1.6-3.8-3.3-6.2-4.1-5.3-1.6-6-1-2.2 1.7 1.6 1.1 3.1 1.8 3.4 1.6.3-.3 1.3.4 2.3 1.5 1.5 1.6 1.6 2.5.7 4.3-1.8 3.7-1.1 6 3.1 10.5 2.3 2.3 3.6 4.2 2.9 4.2-.7 0-1.2.5-1.2 1 0 2.2-4.4 7.6-8.1 9.9-4.1 2.6-4.5 4.7-.5 2.8 1.3-.7 2.2-1.5 2-1.9zm-111.8.9c-2.6-1.6-8.6-8-8.6-9.1 0-.5-.7-1.7-1.6-2.7-1.5-1.7-1.4-2.1 2.5-6.5 4.7-5.3 4.9-6.6 2.1-9.4-1.2-1.2-1.8-2.5-1.5-3 .4-.6.2-1-.3-1-1.4 0-2.2 2.6-1.2 3.6 2.5 2.8 2 5.4-1.9 9.7l-4 4.3 4.2 6.2c2.5 3.7 5.2 6.5 6.5 6.9 1.8.4 2.1.8 1 1.4-.9.6-.3.9 1.7.8 2.7 0 2.8-.1 1.1-1.2zM62.8 76c1.2-1.2 2.2-3 2.2-4 0-2.6-1.6-2.6-2.3 0-.6 2.4-4.7 4.2-6.4 2.8-.8-.7-1.2-3.1-1-6.6.1-3.7-.2-5.6-1-5.9-2-.7-1.7 12.1.3 14.1 2.1 2.2 5.6 2 8.2-.4zm18.8-3.6l-3.7-3.2 3.8-3c2.7-2.2 3.5-3.4 2.7-4.1-.7-.8-2.2 0-5.2 2.7-2.3 2.2-4.2 4.3-4.2 4.8.1.5 2.2 2.6 4.8 4.7 5.7 4.5 7.3 2.8 1.8-1.9zm21.2 3.1c1.3-.4 2.9-.1 3.7.5 1.6 1.3 5.6 1 5.6-.5 0-.5-1.1-1.1-2.5-1.3-2-.3-2.4-.8-2.3-3.7.1-2.5.5-3.1 1.6-2.7 1 .4 1.3.1.8-1-.3-1 0-1.9.9-2.2 2.1-.8.9-2.3-2.3-2.8-1.6-.3-3.7-.9-4.7-1.3-1.6-.7-1.8-.5-1.3.8.5 1.4 0 1.7-2.4 1.7s-3 .4-2.5 1.6c.3.9.6 2.2.6 3.1 0 .9.6 1.3 1.5.9.8-.3 1.5-.2 1.5.3s-.7 1.4-1.5 2.1c-2.2 1.8-1.8 3.2.5 2 1.1-.6 2-.7 2-.1 0 .5-1.1 1.2-2.5 1.5-1.4.4-2.5 1.1-2.5 1.7 0 .6.8.8 1.8.5.9-.2 2.7-.7 4-1.1zM62.3 57.8c3.4.1 3.5-1.5.2-3-3.1-1.4-3.2-3.6-.2-4 1.2-.2 2-.7 1.7-1.3-.3-.5-1.3-.9-2.2-.8-1 .2-1.8-.2-1.8-.7 0-.6 1.2-1 2.6-1 1.6 0 2.4-.5 2.1-1.2-.2-.7-1.3-1.2-2.4-1-1.1.2-2.3-.4-2.6-1.3-.9-2.1-2.9-1.9-2.5.3.2 1.3-.4 1.7-2.9 1.7-2 0-3.3.5-3.3 1.2 0 .8 1.4 1.3 3.6 1.3 2.3 0 3.3.4 2.8 1.1-.3.6-1.7.8-3.1.4-1.8-.4-2.4-.2-2.1.7.3.7 1.8 1.6 3.4 1.9 1.6.4 2.2.7 1.3.8-.8 0-2.4.8-3.5 1.6-1.9 1.5-1.9 1.5.1 3 1.2 1 2.8 1.3 4 .9 1.1-.3 3.2-.6 4.8-.6zm19.1-.3c1-1 2.4-1.3 4.1-.9 3.6.9 3.2-1.5-.5-2.7-4.1-1.5-4-4.4.1-5.3 1.8-.3 2.8-1 2.4-1.7-.4-.6-1.8-.8-3-.5-1.9.5-2.4.2-2.7-1.6-.4-2.6-2.9-3.7-2.6-1.1v5.6c-.2 3-.6 3.7-2.2 3.7-2.9 0-3.8 3-1.5 4.6 2.4 1.8 4 1.8 5.9-.1zm21.4-3c.7-1.3 1.2-1.1 3.2 1 2.3 2.5 5.4 3.3 6.4 1.6.3-.4-1.1-1.9-3.1-3.2-4.6-3-5.2-4.7-1.8-5.1 3.1-.4 2.9-2.3-.2-2.3-1.7.1-2.3-.5-2.3-2.2 0-1.6-.6-2.3-1.8-2.3-1.5 0-1.8.6-1.4 3 .4 2.5.1 3-1.7 3-1.1 0-2.1.5-2.1 1 0 .6.9 1 2 1 2.7 0 2.5 1.5-.6 3.9-2.9 2.3-2.5 4.7.6 3.1 1.1-.6 2.3-1.7 2.8-2.5zm-76.5-7.8c.9-.1 1.7-.4 1.7-.7 0-.4 3.5-.7 7.8-.8 10.5-.1 10.4-.1 9.7-1.2-.3-.5-2.3-1-4.3-1-2-.1-4.8-.2-6.2-.2-5.2-.3-12.5 1.2-13.6 2.6-.6.9-1.3 1.3-1.6 1-.4-.3-.9 0-1.4.7-.5.9.1 1 2.7.4 1.9-.4 4.2-.8 5.2-.8zm102.2-2.6C127.3 43 119 42 119 43c0 1.5 1.5 2 5.9 2 2.7 0 4.1-.4 3.6-.9zm-68.8-9.8c-.3-.3-.2-1.6.3-2.9.6-1.5.6-2.4 0-2.4-1.4 0 4-10.1 7.4-13.7 3.5-3.9 3.8-3.9 7.4-1.3 1.5 1.1 3.6 1.8 4.7 1.5 1.1-.2 2.5-.4 3.2-.4.7-.1 2.1-1.1 3.2-2.3l2.1-2.1 3.6 3.7c2 2 3.4 4 3.1 4.3-.3.3.4 2.2 1.7 4.2 1.3 2 2.2 4.5 2 5.5-.1 1.1.5 2.6 1.4 3.4.9.7 1.2 1.1.5.8-1.8-1-2.4.9-.8 3 1.3 1.8 1.4 1.8 1.9.2 1.4-4.1 1.4-4.6.8-5.3-.4-.4-.7-1-.7-1.3-.3-4-4.8-12.6-9.9-18.6-2.2-2.7-2.6-2.8-4.3-1.5-1 .8-2.2 2-2.6 2.7-1.3 2-8.1 1.5-11.1-.9-1.4-1.1-3.1-1.7-3.8-1.3-1.4.9-7.1 7.3-7.8 8.8-.3.6-1.3 2.3-2.3 3.7-1.9 2.8-2.9 9.8-2 13.8.5 2.1.7 2.1 1.5.7.6-1 .7-2 .5-2.3z"/><path d="M19 115.3c-6.9-3.7-7.7-4.7-6.2-8.6 2-5 2.2-6.6.9-7.7-.7-.5-2.4-2-3.9-3.2L7 93.5 8.6 88c.9-3 2.2-5.8 2.8-6.2.6-.4 2.8 1 5.1 3.2 2.2 2.1 6 4.8 8.5 6.1 6.9 3.4 7.3 3.9 5.6 5.8-2.2 2.4-4.6 8.7-6 15.2l-1.1 5.6-4.5-2.4zm116.6-2.1c-.3-2.6-1.4-5.9-2.4-7.2-.9-1.4-2.2-3.8-2.8-5.5-.6-1.6-1.4-3.7-1.8-4.6-.5-1.2.1-1.9 2.2-2.8 1.6-.7 5.6-3.7 8.8-6.6 3.3-3 6.2-5.5 6.5-5.5.8 0 4.9 10.3 4.9 12.5 0 1.2-1.5 2.9-3.5 4.3-3.5 2.2-4.3 4-2.5 5.8.5.5 1.1 2.4 1.2 4.3.3 3.1-.1 3.7-4.8 6.7l-5.2 3.3-.6-4.7zM27.4 32.1c.3-2.5 1-4.9 1.5-5.4s3.1-1 5.7-1h4.9l2-5.1 2.1-5.1 5.4.3c3 .2 5.7.6 5.9.8.2.2-.3 1.4-1.1 2.6-1.6 2.5-2.5 5.8-3.3 12.2-.3 2.2-.8 4.2-1.1 4.5-.3.3-5.5.6-11.6.7l-11 .1.6-4.6z"/></g><g fill="#fefcfb" fill-rule="nonzero"><path d="M64.5 149.7c-5.4-5.2-5.7-7.2-1.3-8.1 3-.6 12.3-7.4 14.1-10.3 1.1-1.7 3.4-1.7 4.4.1 1.3 2.4 9.7 8.6 11.6 8.6.9 0 1.7.4 1.7 1 0 .5.6.7 1.4.4.7-.3 1.6.3 2 1.2.7 1.8-4.8 8.4-8.8 10.6-2 1.1-6.4-.5-7.9-3-1.1-1.6-4.7-.6-6.5 1.9-2.2 3.1-5.8 2.3-10.7-2.4z"/><path d="M44.5 142.2c-.6-.4-1.7-2.7-2.5-5.2l-1.5-4.5-4.7.3c-4.1.2-4.8 0-6.6-2.6-1.8-2.5-2-4-1.7-11.5.5-8.8 3.3-18.4 6-20.7 2.9-2.4 1.8-5.6-2.7-7.5-2.4-1.1-5.9-3.2-7.9-4.7S18.7 83 18.1 83c-.6 0-1.1-.4-1.1-.9 0-.6-1.1-2.2-2.5-3.7s-3.7-5.2-5.1-8.2l-2.6-5.5 3.6-3.4c3.7-3.5 4.5-6.7 2.6-10.3-1.2-2.3 1.7-6.2 6-8 1.6-.7 2.8-1.5 2.6-1.9-.2-.3 6.2-.7 14.2-.9 8.1-.2 15.1-.8 15.7-1.3 1.1-1.1 3.4-9.5 3.5-13 0-1.4 1.6-5.1 3.5-8.3 1.9-3.2 3.5-6.2 3.5-6.7s.6-.9 1.3-.9c.6 0 2.5-1.4 4.1-3 1.6-1.7 3.3-3 3.8-3s2.1 1.4 3.5 3c3 3.6 6 3.8 9.2.5 3-3.2 5.8-2.7 10.4 1.7 3.4 3.3 8.7 13.1 8.7 16 0 2.9 3 8.8 4.5 8.8 2.1 0 1.9-2.4-.8-10.1-2.6-7.2-2-8.9 2.8-8.9 4.2 0 6.2 1.6 8 6.5 1.9 4.8 2.8 5.1 8.1 3.6 2.9-.8 3.3-.6 4.4 1.8.7 1.4 1.6 4.3 2 6.4l.8 3.8-10.8-.6c-6.6-.4-11-.3-11.4.3-1.1 1.8 1.9 3 7.4 3 5.1-.1 10.4.5 17.5 1.8 1.7.3 4.7 1.8 6.9 3.2 3.6 2.4 3.8 2.9 3.3 6.6-.3 2.1-1.1 4.2-1.8 4.7-.9.5-.5 1.4 1.5 3.1 6.7 5.5 6.9 5.8 5.3 7.6-.7.9-2 3.2-2.7 5-1.7 4.4-13.7 16.2-19.3 19-2.6 1.3-4.7 2.6-4.7 2.9 0 .3.7 1.7 1.5 3.1 2 3.6 5.9 12.5 6 13.7 0 .6.4 1.6.8 2.3.5.7.6 2 .3 3-.3.9-.7 4-1 6.8-1 9.1-1.8 10.2-7.7 10.6-5.2.3-5.3.4-6.6 4.5-1.6 4.8-2.6 5.2-10.6 4-7.2-1.1-15.7-5.5-21.7-11.4-2.4-2.3-4.9-4.3-5.5-4.3-.5 0-3.7 2.6-7 5.6-6.1 5.6-11.4 8.8-16.3 9.8-5.4 1.1-10.7 1.5-11.7.8zm11.3-4.1c.2-.6.9-1.1 1.6-1.1 1.7 0 7.4-2.9 8.1-4.1.8-1.2.5-1.2-4.6.6-2.4.9-4.6 2.1-5 2.7-1.3 2.1-7 1.3-9-1.3-2.4-3.2-3.5-1.9-1.5 1.9 1.3 2.6 2 2.9 5.8 2.7 2.3-.2 4.4-.8 4.6-1.4zm57.4-1.4c-.2-2.1 0-2.7.9-2.1.7.4.9.3.6-.3-.4-.6.4-2 1.7-3.2 1.9-1.8 3.4-2.2 6.7-2 4.8.4 4.7.5 5.6-9.8.6-6.7-.6-11.6-4.4-17.6-1.3-2.1-2.1-4.1-1.9-4.6.3-.5-.3-1.6-1.4-2.6-1.1-1-2-1.3-2-.7 0 .6.4 1.3 1 1.7.5.3.7 1.2.3 2-.3.8 0 1.5.7 1.5.6 0 .9.4.6.9-.3.4.1 1.7.9 2.7.8 1 1.5 3.6 1.5 5.7 0 2 .4 3.7.8 3.7s.7 2.6.6 5.8c-.2 10 0 9.5-3.6 8.8-2.7-.5-3.9 0-6.5 2.3-2 1.7-3.3 3.8-3.3 5.2 0 2.5-2 6.5-2 4.2 0-.8-1.3-1.3-3-1.3-1.6 0-3-.4-3-.9s-1.7-1.5-3.7-2.1c-2.2-.7-6.4-3.7-9.9-7.2-3.4-3.3-6.4-5.6-6.7-5C82.6 123.4 95 135 97.9 135c.6 0 1.1.5 1.1 1 0 .6.8 1 1.8 1s2.2.4 2.8.9c1.2 1.2 4.3 1.9 7.4 1.8 2.1-.2 2.5-.6 2.2-3zm-68.7-7.4c-.8-.8-1.9-1.1-2.5-.8-.5.3-1 .1-1-.5 0-.7-.8-.9-1.9-.5-1.3.4-2.4-.1-3.5-1.7-2.9-4.1-1.6-21.4 1.7-23.5.7-.5 2.1-2.6 3-4.8 1.4-3.2 1.6-4.7.8-6.8-1.1-2.7-2.5-3.5-3.6-1.8-.3.5 0 1.3.6 1.6 1.4.9.1 8.8-1.7 9.8-2.8 1.6-5.7 10-5.5 16.2.2 9.6 2.6 13.1 8.3 12.7.9-.1 2.1.5 2.8 1.3.6.7 1.8 1.1 2.5.8 1.2-.4 1.2-.7 0-2zm27.8-2.2c3.7-3.9 4.6-6.1 2.6-6.1-.6 0-1.3.9-1.6 2-.3 1.1-.8 2-1.2 2-.3 0-2.2 1.4-4.1 3-3 2.5-3.2 3-1.5 3 1.2 0 3.8-1.8 5.8-3.9zm49.6-35.8c-.4-2.2.3-3.3 1.9-3.3 1 0 2.7-.7 3.8-1.5 1-.8 2.7-1.5 3.6-1.5 1.2 0 1.5-.5 1.1-1.5-.3-.9-.2-1.5.3-1.4 1.8.3 5.4-1.4 4.8-2.2-.3-.5.1-.9.9-.9 1.8 0 3.9-2.4 7.1-8.3 2.4-4.2 2.5-4.9 1.2-6.2-.8-.8-1.9-1.5-2.5-1.5-1.1 0-3.3-3.6-3.7-5.9-.2-.8.4-2.5 1.3-3.8 1.5-2.2 1.5-2.6-.3-5-1.7-2.2-8.1-5.3-10.9-5.2-1.4 0 4.7 4.9 6.1 4.9 2.3 0 3.8 2.9 2.6 5.3-1.8 3.7-1.1 6 3.1 10.5 2.3 2.3 3.6 4.2 2.9 4.2-.7 0-1.2.7-1.2 1.5s-.4 1.5-1 1.5c-.5 0-1 .7-1 1.5 0 .7-.8 1.9-1.7 2.4-1 .6-1.4 1.1-.9 1.1 1.2 0-6.2 5-7.4 5-.6 0-1 .4-1 .8 0 .5-2.2 1.8-4.8 2.9-5.2 2.3-7.7 4.6-6.7 6.3.7 1.2 2.6 1.4 2.4.3zM38 86.5c.1-.5-1.4-1.3-3.2-1.6-1.8-.3-4.6-.9-6.3-1.3-2.8-.7-2.9-.7-1.1.8 1.1.9 2.6 1.6 3.3 1.6.7 0 1.3.4 1.3.9 0 1.2 6 .8 6-.4zm-12.4-5.8c-2.6-1.6-8.6-8-8.6-9.1 0-.5-.8-1.8-1.7-2.8-1.6-1.7-1.5-2 1.8-5.6 1.9-2 3.7-3.8 4.2-4 1.4-.7.7-4.2-1.3-6.2-1.2-1.2-1.8-2.5-1.5-3 .4-.6.2-1-.3-1-1.4 0-2.2 2.6-1.2 3.6 2.5 2.8 2 5.4-1.9 9.7l-4 4.3 4.2 6.2c2.5 3.7 5.2 6.5 6.5 6.9 1.8.4 2.1.8 1 1.4-.9.6-.3.9 1.7.8 2.7 0 2.8-.1 1.1-1.2zM27 46.3c1.4-.3 6.1-.6 10.4-.7 5.4-.1 8.1-.5 8.4-1.4.2-.8-.9-1.2-4-1.3-2.3 0-5.9-.1-7.8-.1-5.9-.1-11.4 1.1-12.6 2.7-.6.8-1.3 1.2-1.6.9-.4-.3-.9 0-1.4.7-.5.9.1 1 2.7.5 1.9-.5 4.5-1 5.9-1.3zm101.5-2.2c-1.4-1.2-9.3-2.3-9.9-1.2-1 1.5.6 2.1 5.8 2.1 2.9 0 4.6-.4 4.1-.9zM60.2 33c.2-2.2 0-4-.4-4-1.3 0 4.4-10.4 7.6-13.7 3.5-3.9 3.8-3.9 7.4-1.3 1.5 1.1 3.6 1.8 4.7 1.5 1.1-.2 2.5-.4 3.2-.4.7-.1 2.2-1.1 3.3-2.3l2.1-2.3 3.2 3.9c1.8 2.2 3.2 4.2 3.3 4.5 0 .3 1 2.6 2.1 5 1.2 2.4 1.9 5 1.6 5.8-.3.7.1 1.3.8 1.3.9 0 1 .3.2 1.1-1.4 1.4-.5 4.9 1.3 4.9 1.3 0 1.9-3 1.4-7.5-.4-3.5-5.9-13.9-9.5-17.9-3.1-3.5-3.6-3.7-5.2-2.5-1 .8-2.2 2-2.6 2.7-1.3 2-8.1 1.5-11.1-.9-2.9-2.3-3.8-2-8.1 2.9-5.6 6.5-8.5 12.8-8.5 18.5 0 7.1 2.5 7.6 3.2.7z"/><path d="M21.6 116.6c-3.8-2.2-9.2-6.1-9.4-6.8 0-.4.6-2.4 1.4-4.4 1.7-4 1.1-7-1.5-7.9-1-.3-2.6-1.3-3.4-2.3-1.5-1.6-1.5-2.2 0-7.2.9-3 2.1-5.8 2.7-6.2.6-.4 2.8 1 5.1 3.2 2.2 2.1 6.3 5 9.2 6.5 6.1 3 6.8 3.8 4.8 5.5-1.8 1.5-5.5 11.1-6.4 16.6-.5 3.7-.8 4-2.5 3zm114.1-3.6c-.3-2.3-1.3-5.3-2.3-6.8-1-1.5-2.4-4-3-5.7-.6-1.6-1.4-3.7-1.8-4.6-.5-1.2.1-1.9 2.2-2.8 1.6-.7 5.6-3.7 8.8-6.6 3.3-3 6.2-5.5 6.5-5.5.8 0 4.9 10.3 4.9 12.5 0 1.2-1.5 2.9-3.5 4.3-3.6 2.3-4.3 4-2.4 5.9 1.3 1.3 1.5 7.1.3 8.3-.9.8-8.2 5-8.8 5-.2 0-.6-1.8-.9-4zM27.4 32.1c.3-2.5 1.1-5 1.6-5.5s3.1-.9 5.8-.7l4.8.2 2.1-5.1 2.1-5h5.6c5.9 0 6.4.4 4.2 3.5-1.4 2.1-2.3 5.5-3.1 11.9-.3 2.2-.8 4.2-1.1 4.5-.3.3-5.5.6-11.6.7l-11 .1.6-4.6z"/></g></svg>